<?xml version="1.0" encoding="UTF-8"?>
<svg version="1.1" xmlns="http://www.w3.org/2000/svg" width="1024" height="1024">
<path d="M0 0 C1.062162 0.0070235 1.062162 0.0070235 2.14578182 0.01418889 C2.8988166 0.011282 3.65185139 0.00837512 4.42770541 0.00538015 C6.97738763 -0.00197924 9.52683365 0.00505092 12.07651454 0.01190388 C13.91235269 0.00960179 15.74818992 0.00642697 17.5840252 0.00244939 C22.64937044 -0.00594187 27.71464085 -0.0017538 32.77998644 0.00442183 C38.23471518 0.00892771 43.68943062 0.00197187 49.14415675 -0.00353801 C59.83810051 -0.01245368 70.53201627 -0.01050036 81.22596115 -0.00471273 C89.91344756 -0.00020477 98.6009261 0.00042043 107.28841335 -0.00176036 C108.52260067 -0.00206683 109.756788 -0.0023733 111.02837494 -0.00268905 C113.53522541 -0.00332847 116.04207588 -0.00397689 118.54892635 -0.00463423 C141.4107347 -0.01018097 164.27253035 -0.00441869 187.13433599 0.00605096 C208.0195707 0.01554269 228.90478102 0.01469346 249.79001552 0.00512898 C273.23636061 -0.00557239 296.68269405 -0.00979451 320.12904149 -0.00364649 C322.62691845 -0.00300936 325.12479541 -0.00238062 327.62267238 -0.00176036 C329.46640888 -0.00129754 329.46640888 -0.00129754 331.34739259 -0.00082536 C340.02927425 0.00090497 348.71114728 -0.00202078 357.3930276 -0.00671947 C367.96640398 -0.01231579 378.53975064 -0.01083827 389.1131236 -0.00015798 C394.5127624 0.00511562 399.91235159 0.00712691 405.31199008 0.00054371 C410.24774452 -0.00538312 415.18340298 -0.00219512 420.11914861 0.00849882 C421.91184376 0.01074681 423.70454689 0.00956559 425.49723697 0.00474724 C427.92004388 -0.00126894 430.34251503 0.00483638 432.76530391 0.01418889 C433.82746591 0.00716539 433.82746591 0.00716539 434.91108572 0 C439.72724211 0.03757041 439.72724211 0.03757041 441.95554286 2.26587117 C444.64436056 2.52084526 447.2614318 2.68580143 449.95554286 2.76587117 C457.68527259 2.9956009 457.68527259 2.9956009 459.95554286 5.26587117 C462.11418782 5.51581953 464.28459956 5.66981173 466.45554286 5.76587117 C472.73332064 6.04364894 472.73332064 6.04364894 474.95554286 8.26587117 C477.11418782 8.51581953 479.28459956 8.66981173 481.45554286 8.76587117 C487.73332064 9.04364894 487.73332064 9.04364894 489.95554286 11.26587117 C492.11418782 11.51581953 494.28459956 11.66981173 496.45554286 11.76587117 C502.73332064 12.04364894 502.73332064 12.04364894 504.95554286 14.26587117 C507.32284487 14.65297497 507.32284487 14.65297497 509.95554286 14.76587117 C514.73332064 15.04364894 514.73332064 15.04364894 516.95554286 17.26587117 C518.68804286 17.51337117 518.68804286 17.51337117 520.45554286 17.76587117 C523.95554286 18.26587117 523.95554286 18.26587117 525.95554286 20.26587117 C526.73929286 20.55462117 527.52304286 20.84337117 528.33054286 21.14087117 C531.28320409 22.40629741 532.70388938 24.01421768 534.95554286 26.26587117 C537.3462302 27.37223512 537.3462302 27.37223512 539.95554286 28.26587117 C544.85160824 30.28815904 547.7260438 32.94226275 551.30319911 36.70727742 C552.93049554 38.43320009 552.93049554 38.43320009 555.45554286 39.26587117 C558.88619599 40.63813242 560.75013291 43.02397449 563.26804286 45.67212117 C564.92261245 47.43032789 564.92261245 47.43032789 567.45554286 48.26587117 C570.8485705 49.62308222 572.69555176 51.91984334 575.11179286 54.60962117 C576.86895107 56.39997843 576.86895107 56.39997843 579.25754482 57.08105671 C582.53420851 58.51998974 584.43425243 60.35633643 586.96726161 62.87915242 C587.88958583 63.79760945 588.81191005 64.71606648 589.76218349 65.66235554 C590.23502773 66.14148396 590.70787196 66.62061238 591.19504482 67.11425984 C592.63874858 68.5740291 594.09776031 70.01709854 595.55905849 71.45923054 C596.47751552 72.38155476 597.39597255 73.30387898 598.34226161 74.25415242 C599.5984933 75.51545979 599.5984933 75.51545979 600.88010341 76.80224812 C602.95178489 79.26141031 603.87267326 81.27383958 604.95554286 84.26587117 C605.61554286 84.92587117 606.27554286 85.58587117 606.95554286 86.26587117 C609.19191817 88.50224648 609.79402257 90.36207043 610.95554286 93.26587117 C611.61554286 93.92587117 612.27554286 94.58587117 612.95554286 95.26587117 C615.19191817 97.50224648 615.79402257 99.36207043 616.95554286 102.26587117 C617.61554286 102.92587117 618.27554286 103.58587117 618.95554286 104.26587117 C621.21817692 106.52850523 621.88717517 108.27444162 622.95554286 111.26587117 C623.93841295 113.27434482 624.93931628 115.27406707 625.95554286 117.26587117 C627.50567249 120.36613042 629.05393485 123.46643946 630.58054286 126.57837117 C631.70712805 129.11993318 631.70712805 129.11993318 632.95554286 130.26587117 C633.09991786 131.40024617 633.24429286 132.53462117 633.39304286 133.70337117 C633.60401837 137.30646114 633.60401837 137.30646114 635.95554286 139.26587117 C636.34277007 142.61010616 636.46300202 145.93444819 636.61179286 149.29712117 C636.65755615 152.38193888 636.65755615 152.38193888 638.95554286 154.26587117 C639.33662464 156.82951224 639.46140656 159.3667267 639.61179286 161.95337117 C639.74932965 164.456627 639.74932965 164.456627 641.95554286 166.26587117 C642.33662464 168.82951224 642.46140656 171.3667267 642.61179286 173.95337117 C642.74932965 176.456627 642.74932965 176.456627 644.95554286 178.26587117 C645.34277007 181.61010616 645.46300202 184.93444819 645.61179286 188.29712117 C645.65755615 191.38193888 645.65755615 191.38193888 647.95554286 193.26587117 C648.20805055 195.6535846 648.20805055 195.6535846 648.21166927 198.72258198 C648.21790136 199.8887848 648.22413346 201.05498763 648.2305544 202.25652993 C648.22560594 204.19511014 648.22560594 204.19511014 648.22055751 206.17285359 C648.22412532 207.55084012 648.22857466 208.92882461 648.23383409 210.30680573 C648.2458022 214.10657529 648.24531037 217.90625897 648.242899 221.70604289 C648.24248086 225.79880511 648.25356479 229.89153723 648.26335841 233.98428547 C648.27883816 241.08007149 648.28722831 248.17583756 648.29106838 255.27163899 C648.29680583 265.53325192 648.31537605 275.79481107 648.33750892 286.0564003 C648.37325635 302.70661879 648.40155842 319.35684032 648.42380458 336.0070821 C648.42513957 337.00429181 648.42647456 338.00150152 648.42785001 339.02892971 C648.43862744 347.12089575 648.44904618 355.21286224 648.45945007 363.30482876 C648.46855942 370.37810615 648.47781196 377.45138332 648.48728114 384.52466023 C648.48927726 386.01866063 648.48927726 386.01866063 648.4913137 387.54284286 C648.51371651 404.12925337 648.54389899 420.7156409 648.57967359 437.30202782 C648.60137965 447.54223071 648.61597061 457.78239783 648.62151235 468.02262247 C648.62574855 475.03463431 648.63695714 482.04661209 648.65373629 489.05860507 C648.66317331 493.10941712 648.66924368 497.16016541 648.666673 501.21098912 C648.66437308 504.91438083 648.67111695 508.6176383 648.68525183 512.32100272 C648.69039059 514.30573325 648.68559759 516.29048169 648.68053132 518.27521241 C648.68676342 519.44141523 648.69299551 520.60761805 648.69941646 521.80916035 C648.70061064 522.82192949 648.70180481 523.83469862 648.70303518 524.87815773 C648.72215495 527.45169771 648.72215495 527.45169771 650.95554286 529.26587117 C651.15451393 532.32881108 651.22816605 535.30137569 651.21433192 538.36548054 C651.21958888 539.78024426 651.21958888 539.78024426 651.22495204 541.22358906 C651.23378014 544.35234052 651.22791638 547.48086727 651.22116786 550.60962117 C651.2225142 552.77673587 651.22445447 554.94385028 651.2269662 557.11096394 C651.22991893 561.65725778 651.22561503 566.20347315 651.21628505 570.74975789 C651.20489047 576.5877502 651.21144914 582.42555864 651.22342998 588.2635442 C651.23064455 592.73982334 651.2283625 597.21605863 651.22317439 601.69233906 C651.22183678 603.84540528 651.22348949 605.99847544 651.2281335 608.15153706 C651.23319211 611.15655315 651.22549784 614.16126822 651.21433192 617.16626179 C651.21838039 618.06295079 651.22242885 618.95963978 651.22659999 619.88350117 C651.1840704 626.03734363 651.1840704 626.03734363 648.95554286 628.26587117 C648.61916227 630.26485973 648.61916227 630.26485973 648.61179286 632.54712117 C648.56732021 633.80975789 648.56732021 633.80975789 648.52194911 635.09790242 C648.50003505 635.9783321 648.47812099 636.85876179 648.45554286 637.76587117 C648.41223831 639.50569517 648.36055403 641.24533686 648.29929286 642.98462117 C648.28060146 643.75741414 648.26191005 644.5302071 648.24265224 645.32641804 C647.95554286 647.26587117 647.95554286 647.26587117 645.95554286 649.26587117 C645.70056877 651.95468886 645.5356126 654.57176011 645.45554286 657.26587117 C645.22581313 664.9956009 645.22581313 664.9956009 642.95554286 667.26587117 C642.6178281 669.55867445 642.6178281 669.55867445 642.61179286 672.20337117 C642.58214442 673.18048054 642.55249599 674.15758992 642.52194911 675.16430867 C642.50003505 676.18782429 642.47812099 677.21133992 642.45554286 678.26587117 C642.4122712 680.28691238 642.36060317 682.30779672 642.29929286 684.32837117 C642.27125575 685.67608601 642.27125575 685.67608601 642.24265224 687.05102742 C641.95554286 689.26587117 641.95554286 689.26587117 639.95554286 691.26587117 C639.70056877 693.95468886 639.5356126 696.57176011 639.45554286 699.26587117 C639.22581313 706.9956009 639.22581313 706.9956009 636.95554286 709.26587117 C636.79054286 710.42087117 636.62554286 711.57587117 636.45554286 712.76587117 C635.95554286 716.26587117 635.95554286 716.26587117 633.95554286 718.26587117 C633.79054286 719.42087117 633.62554286 720.57587117 633.45554286 721.76587117 C632.95554286 725.26587117 632.95554286 725.26587117 630.95554286 727.26587117 C630.26513712 728.92284495 629.60247937 730.59144727 628.95554286 732.26587117 C627.97267278 734.27434482 626.97176944 736.27406707 625.95554286 738.26587117 C625.46054286 739.25587117 624.96554286 740.24587117 624.45554286 741.26587117 C621.95554286 746.26587117 619.45554286 751.26587117 616.95554286 756.26587117 C616.24398036 757.81274617 616.24398036 757.81274617 615.51804286 759.39087117 C613.95269171 762.27111729 612.25134959 763.97006444 609.95554286 766.26587117 C609.68741786 767.02899617 609.41929286 767.79212117 609.14304286 768.57837117 C607.62290884 772.01867449 605.38368892 773.93211284 602.61179286 776.42212117 C600.82468891 778.16350629 600.82468891 778.16350629 600.22238857 780.48584187 C598.52339604 784.21419567 595.90204066 786.74870523 593.02976161 789.59008992 C592.44515666 790.17756505 591.86055171 790.76504017 591.25823146 791.37031758 C590.02373262 792.60685231 588.78545945 793.83962901 587.54367763 795.06884968 C585.64939613 796.94707177 583.77164268 798.84075055 581.89499599 800.73657429 C580.69087855 801.93870921 579.48583079 803.13991313 578.27976161 804.34008992 C577.72125011 804.90467412 577.1627386 805.46925831 576.58730251 806.05095112 C573.54125186 809.0430324 570.992814 810.89948497 566.95554286 812.26587117 C566.29554286 812.92587117 565.63554286 813.58587117 564.95554286 814.26587117 C562.6929088 816.52850523 560.94697241 817.19750347 557.95554286 818.26587117 C554.77844075 819.69232518 552.3635793 820.85783472 549.89304286 823.32837117 C547.66899494 825.55241909 545.89877899 826.21471541 542.95554286 827.26587117 C539.77844075 828.69232518 537.3635793 829.85783472 534.89304286 832.32837117 C532.66899494 834.55241909 530.89877899 835.21471541 527.95554286 836.26587117 C524.20625117 837.88848372 524.20625117 837.88848372 520.95554286 840.26587117 C519.82116786 840.41024617 518.68679286 840.55462117 517.51804286 840.70337117 C513.91495289 840.91434668 513.91495289 840.91434668 511.95554286 843.26587117 C510.29737502 843.95340417 508.6309495 844.621484 506.95554286 845.26587117 C506.62554286 845.59587117 506.29554286 845.92587117 505.95554286 846.26587117 C503.40798182 846.5489335 500.86044264 846.71402902 498.30319911 846.88696492 C495.77041514 847.06072841 495.77041514 847.06072841 493.95554286 849.26587117 C490.61130787 849.65309838 487.28696584 849.77333033 483.92429286 849.92212117 C480.83947515 849.96788445 480.83947515 849.96788445 478.95554286 852.26587117 C475.61130787 852.65309838 472.28696584 852.77333033 468.92429286 852.92212117 C465.83947515 852.96788445 465.83947515 852.96788445 463.95554286 855.26587117 C461.75437099 855.53088582 461.75437099 855.53088582 458.98679286 855.55298054 C457.95232021 855.56639485 456.91784755 855.57980916 455.85202724 855.59362996 C454.73118739 855.59890706 453.61034755 855.60418416 452.45554286 855.60962117 C451.30892177 855.62424397 450.16230067 855.63886677 448.98093349 855.65393269 C444.0585209 855.71640071 439.13598018 855.75585963 434.21335536 855.79760945 C430.62728151 855.83125258 427.04147955 855.87638989 423.45554286 855.92212117 C422.33470302 855.92739827 421.21386317 855.93267537 420.05905849 855.93811238 C419.02458583 855.95152668 417.99011317 855.96494099 416.92429286 855.97876179 C416.01099208 855.98605305 415.0976913 855.99334431 414.15671474 856.00085652 C411.74880222 856.06093599 411.74880222 856.06093599 409.95554286 858.26587117 C407.41394073 858.5165695 407.41394073 858.5165695 404.12401515 858.51755345 C402.24930868 858.52537669 402.24930868 858.52537669 400.33672935 858.53335798 C398.93696153 858.52903319 397.53719429 858.52451985 396.13742763 858.51983845 C394.6604468 858.52214081 393.18346712 858.52531581 391.70648986 858.52929294 C387.63307548 858.53768061 383.55975421 858.53349776 379.48633939 858.5273205 C375.099104 858.52281317 370.71188512 858.52977119 366.32465297 858.53528035 C357.72422874 858.54419444 349.12383933 858.54224339 340.52341372 858.53645507 C333.53644189 858.53194649 326.54947984 858.53132218 319.56250697 858.5335027 C318.56977608 858.53380916 317.57704518 858.53411563 316.55423152 858.53443138 C314.53780005 858.5350708 312.52136858 858.53571923 310.50493711 858.53637657 C291.57697684 858.54208577 272.64903591 858.53551273 253.72107881 858.52477583 C237.46426287 858.51583979 221.20747548 858.51739166 204.95066005 858.52661335 C186.09249429 858.53730558 167.2343455 858.54153639 148.37617713 858.53538883 C146.36697767 858.5347517 144.35777821 858.53412296 142.34857875 858.5335027 C141.35989868 858.53319415 140.3712186 858.5328856 139.35257852 858.53256769 C132.37038583 858.53083761 125.38820386 858.5337626 118.40601283 858.5384618 C109.90223948 858.54405903 101.39850306 858.5425787 92.89473397 858.53190032 C88.55228021 858.52662792 84.20988816 858.52461337 79.8674348 858.53119862 C75.89759263 858.53712796 71.92786975 858.53393329 67.95803851 858.52324352 C66.51661988 858.5209966 65.07519131 858.52217441 63.63377899 858.52699509 C61.68488294 858.53301649 59.73595895 858.52568626 57.78707057 858.51755345 C56.70139513 858.51722874 55.61571969 858.51690404 54.497145 858.5165695 C51.95554286 858.26587117 51.95554286 858.26587117 49.95554286 856.26587117 C47.66590012 855.94866809 47.66590012 855.94866809 44.98679286 855.97876179 C43.95232021 855.96534749 42.91784755 855.95193318 41.85202724 855.93811238 C40.73118739 855.93283528 39.61034755 855.92755818 38.45554286 855.92212117 C37.30892177 855.90749836 36.16230067 855.89287556 34.98093349 855.87780964 C31.30583871 855.83117075 27.63079952 855.79704179 23.95554286 855.76587117 C19.12200457 855.72487691 14.28885698 855.67126019 9.45554286 855.60962117 C8.33470302 855.60434407 7.21386317 855.59906697 6.05905849 855.59362996 C5.02458583 855.58021565 3.99011317 855.56680134 2.92429286 855.55298054 C2.01099208 855.54568928 1.0976913 855.53839802 0.15671474 855.53088582 C-2.04445714 855.26587117 -2.04445714 855.26587117 -4.04445714 853.26587117 C-7.21786011 852.92566293 -7.21786011 852.92566293 -10.95070714 852.92212117 C-11.97146336 852.90018696 -11.97146336 852.90018696 -13.01284093 852.87780964 C-15.18998681 852.83125369 -17.36704032 852.79708001 -19.54445714 852.76587117 C-22.4093827 852.72480829 -25.27365681 852.67117517 -28.13820714 852.60962117 C-30.05149815 852.58158406 -30.05149815 852.58158406 -32.00344151 852.55298054 C-35.04445714 852.26587117 -35.04445714 852.26587117 -37.04445714 850.26587117 C-39.20310209 850.0159228 -41.37351384 849.86193061 -43.54445714 849.76587117 C-49.82223492 849.48809339 -49.82223492 849.48809339 -52.04445714 847.26587117 C-53.19945714 847.10087117 -54.35445714 846.93587117 -55.54445714 846.76587117 C-59.04445714 846.26587117 -59.04445714 846.26587117 -61.04445714 844.26587117 C-62.19945714 844.10087117 -63.35445714 843.93587117 -64.54445714 843.76587117 C-68.04445714 843.26587117 -68.04445714 843.26587117 -70.04445714 841.26587117 C-71.70143092 840.57546542 -73.37003324 839.91280767 -75.04445714 839.26587117 C-80.82223492 836.48809339 -80.82223492 836.48809339 -82.04445714 835.26587117 C-83.17883214 835.12149617 -84.31320714 834.97712117 -85.48195714 834.82837117 C-89.04445714 834.26587117 -89.04445714 834.26587117 -91.04445714 832.26587117 C-92.70143092 831.57546542 -94.37003324 830.91280767 -96.04445714 830.26587117 C-100.21621929 828.3928351 -102.84158949 826.46873881 -106.04445714 823.26587117 C-106.80758214 822.99774617 -107.57070714 822.72962117 -108.35695714 822.45337117 C-111.79726046 820.93323714 -113.71069881 818.69401723 -116.20070714 815.92212117 C-117.97104928 814.12666554 -117.97104928 814.12666554 -120.42141026 813.38891804 C-123.28034951 812.16487481 -124.73206507 810.88654657 -126.85695714 808.64087117 C-127.54016026 807.93446492 -128.22336339 807.22805867 -128.92726964 806.50024617 C-130.33872797 805.01066283 -131.7501863 803.5210795 -133.16164464 802.03149617 C-133.84484776 801.32508992 -134.52805089 800.61868367 -135.23195714 799.89087117 C-136.15041417 798.9202071 -136.15041417 798.9202071 -137.08742589 797.92993367 C-139.27997268 796.06561244 -141.3855981 795.31058307 -144.04445714 794.26587117 C-144.7111238 792.5992045 -145.37779047 790.93253783 -146.04445714 789.26587117 C-147.1733603 788.06262561 -148.34494663 786.8987422 -149.54445714 785.76587117 C-152.39400764 783.05732935 -153.73196609 781.00142262 -155.04445714 777.26587117 C-155.70445714 776.60587117 -156.36445714 775.94587117 -157.04445714 775.26587117 C-159.3070912 773.00323711 -159.97608944 771.25730071 -161.04445714 768.26587117 C-162.47091115 765.08876905 -163.6364207 762.67390761 -166.10695714 760.20337117 C-168.33100506 757.97932325 -168.99330138 756.2091073 -170.04445714 753.26587117 C-171.47091115 750.08876905 -172.6364207 747.67390761 -175.10695714 745.20337117 C-177.3039631 743.0063652 -177.90211885 741.12171688 -179.04445714 738.26587117 C-179.70445714 737.60587117 -180.36445714 736.94587117 -181.04445714 736.26587117 C-183.3070912 734.00323711 -183.97608944 732.25730071 -185.04445714 729.26587117 C-186.66706969 725.51657948 -186.66706969 725.51657948 -189.04445714 722.26587117 C-189.18883214 721.13149617 -189.33320714 719.99712117 -189.48195714 718.82837117 C-189.69293265 715.22528119 -189.69293265 715.22528119 -192.04445714 713.26587117 C-192.42553892 710.70223009 -192.55032083 708.16501564 -192.70070714 705.57837117 C-192.83824393 703.07511533 -192.83824393 703.07511533 -195.04445714 701.26587117 C-195.43168435 697.92163618 -195.5519163 694.59729415 -195.70070714 691.23462117 C-195.74647042 688.14980346 -195.74647042 688.14980346 -198.04445714 686.26587117 C-198.43168435 682.92163618 -198.5519163 679.59729415 -198.70070714 676.23462117 C-198.74647042 673.14980346 -198.74647042 673.14980346 -201.04445714 671.26587117 C-201.43168435 667.92163618 -201.5519163 664.59729415 -201.70070714 661.23462117 C-201.74647042 658.14980346 -201.74647042 658.14980346 -204.04445714 656.26587117 C-204.24135458 653.83157688 -204.31224373 651.51108281 -204.29613942 649.07563221 C-204.2990463 648.32259743 -204.30195318 647.56956264 -204.30494815 646.79370862 C-204.31230755 644.2440264 -204.30527739 641.69458038 -204.29842442 639.14489949 C-204.30072651 637.30906134 -204.30390133 635.47322411 -204.30787891 633.63738883 C-204.31627017 628.57204359 -204.3120821 623.50677318 -204.30590647 618.44142759 C-204.3014006 612.98669885 -204.30835643 607.53198341 -204.31386632 602.07725728 C-204.32278199 591.38331352 -204.32082866 580.68939776 -204.31504104 569.99545288 C-204.31053307 561.30796647 -204.30990788 552.62048793 -204.31208867 543.93300068 C-204.31239513 542.69881336 -204.3127016 541.46462603 -204.31301735 540.19303909 C-204.31365677 537.68618862 -204.3143052 535.17933814 -204.31496254 532.67248768 C-204.32050928 509.81067933 -204.314747 486.94888368 -204.30427734 464.08707804 C-204.29478561 443.20184333 -204.29563485 422.31663301 -204.30519933 401.43139851 C-204.3159007 377.98505342 -204.32012282 354.53871998 -204.3139748 331.09237254 C-204.31333767 328.59449558 -204.31270893 326.09661861 -204.31208867 323.59874165 C-204.31178012 322.36958398 -204.31147157 321.14042631 -204.31115367 319.87402144 C-204.30942333 311.19213978 -204.31234909 302.51026675 -204.31704777 293.82838643 C-204.3226441 283.25501005 -204.32116657 272.68166339 -204.31048629 262.10829043 C-204.30521268 256.70865163 -204.3032014 251.30906244 -204.30978459 245.90942395 C-204.31571143 240.97366951 -204.31252343 236.03801105 -204.30182949 231.10226542 C-204.2995815 229.30957027 -204.30076272 227.51686714 -204.30558106 225.72417706 C-204.31159724 223.30137015 -204.30549192 220.878899 -204.29613942 218.45611012 C-204.30082175 217.74800212 -204.30550408 217.03989412 -204.3103283 216.3103283 C-204.27275789 211.49417192 -204.27275789 211.49417192 -202.04445714 209.26587117 C-201.78948305 206.57705347 -201.62452687 203.95998223 -201.54445714 201.26587117 C-201.31472741 193.53614144 -201.31472741 193.53614144 -199.04445714 191.26587117 C-198.78948305 188.57705347 -198.62452687 185.95998223 -198.54445714 183.26587117 C-198.31472741 175.53614144 -198.31472741 175.53614144 -196.04445714 173.26587117 C-195.78948305 170.57705347 -195.62452687 167.95998223 -195.54445714 165.26587117 C-195.31472741 157.53614144 -195.31472741 157.53614144 -193.04445714 155.26587117 C-192.79450877 153.10722621 -192.64051658 150.93681447 -192.54445714 148.76587117 C-192.26667936 142.48809339 -192.26667936 142.48809339 -190.04445714 140.26587117 C-189.87945714 139.11087117 -189.71445714 137.95587117 -189.54445714 136.76587117 C-189.04445714 133.26587117 -189.04445714 133.26587117 -187.04445714 131.26587117 C-186.35405139 129.60889738 -185.69139364 127.94029506 -185.04445714 126.26587117 C-184.06158705 124.25739752 -183.06068372 122.25767526 -182.04445714 120.26587117 C-181.54945714 119.27587117 -181.05445714 118.28587117 -180.54445714 117.26587117 C-178.04445714 112.26587117 -175.54445714 107.26587117 -173.04445714 102.26587117 C-172.57008214 101.23462117 -172.09570714 100.20337117 -171.60695714 99.14087117 C-170.04160598 96.26062505 -168.34026387 94.56167789 -166.04445714 92.26587117 C-165.77633214 91.50274617 -165.50820714 90.73962117 -165.23195714 89.95337117 C-163.71182311 86.51306785 -161.4726032 84.59962949 -158.70070714 82.10962117 C-156.91487345 80.37609361 -156.91487345 80.37609361 -156.35231847 78.08691609 C-154.48081892 74.05010869 -151.59985714 71.39260122 -148.46242589 68.28540242 C-147.8112328 67.63133915 -147.16003972 66.97727589 -146.48911351 66.30339253 C-145.11338017 64.92562209 -143.7338685 63.5516154 -142.35085362 62.18115437 C-140.23930698 60.08566512 -138.14422914 57.9746678 -136.05031651 55.86157429 C-134.70948046 54.52272073 -133.36771405 53.18479812 -132.02492589 51.84790242 C-131.08872662 50.90259411 -131.08872662 50.90259411 -130.13361424 49.93818867 C-126.91883998 46.77461177 -124.41117178 44.68961985 -120.04445714 43.26587117 C-119.05445714 42.27587117 -119.05445714 42.27587117 -118.04445714 41.26587117 C-115.78182308 39.00323711 -114.03588668 38.33423886 -111.04445714 37.26587117 C-107.86735502 35.83941716 -105.45249358 34.67390761 -102.98195714 32.20337117 C-100.78495117 30.0063652 -98.90030285 29.40820945 -96.04445714 28.26587117 C-95.38445714 27.60587117 -94.72445714 26.94587117 -94.04445714 26.26587117 C-91.78182308 24.00323711 -90.03588668 23.33423886 -87.04445714 22.26587117 C-85.03598349 21.28300108 -83.03626123 20.28209774 -81.04445714 19.26587117 C-79.95133214 18.72962117 -78.85820714 18.19337117 -77.73195714 17.64087117 C-75.19039512 16.51428598 -75.19039512 16.51428598 -74.04445714 15.26587117 C-72.34289464 15.04930867 -72.34289464 15.04930867 -70.60695714 14.82837117 C-67.00386716 14.61739566 -67.00386716 14.61739566 -65.04445714 12.26587117 C-62.48081606 11.88478939 -59.94360161 11.76000747 -57.35695714 11.60962117 C-54.8537013 11.47208438 -54.8537013 11.47208438 -53.04445714 9.26587117 C-49.70022215 8.87864396 -46.37588012 8.75841201 -43.01320714 8.60962117 C-39.92838943 8.56385788 -39.92838943 8.56385788 -38.04445714 6.26587117 C-34.70022215 5.87864396 -31.37588012 5.75841201 -28.01320714 5.60962117 C-24.92838943 5.56385788 -24.92838943 5.56385788 -23.04445714 3.26587117 C-19.62253303 2.94137836 -16.24307747 2.8014945 -12.81008214 2.69946492 C-7.66646828 2.48358331 -5.04511814 0.03935652 0 0 Z " fill="#3293FE" transform="translate(290.0444571375847,82.73412883281708)"/>
<path d="M0 0 C1.062162 0.0070235 1.062162 0.0070235 2.14578182 0.01418889 C2.8988166 0.011282 3.65185139 0.00837512 4.42770541 0.00538015 C6.97738763 -0.00197924 9.52683365 0.00505092 12.07651454 0.01190388 C13.91235269 0.00960179 15.74818992 0.00642697 17.5840252 0.00244939 C22.64937044 -0.00594187 27.71464085 -0.0017538 32.77998644 0.00442183 C38.23471518 0.00892771 43.68943062 0.00197187 49.14415675 -0.00353801 C59.83810051 -0.01245368 70.53201627 -0.01050036 81.22596115 -0.00471273 C89.91344756 -0.00020477 98.6009261 0.00042043 107.28841335 -0.00176036 C108.52260067 -0.00206683 109.756788 -0.0023733 111.02837494 -0.00268905 C113.53522541 -0.00332847 116.04207588 -0.00397689 118.54892635 -0.00463423 C141.4107347 -0.01018097 164.27253035 -0.00441869 187.13433599 0.00605096 C208.0195707 0.01554269 228.90478102 0.01469346 249.79001552 0.00512898 C273.23636061 -0.00557239 296.68269405 -0.00979451 320.12904149 -0.00364649 C322.62691845 -0.00300936 325.12479541 -0.00238062 327.62267238 -0.00176036 C329.46640888 -0.00129754 329.46640888 -0.00129754 331.34739259 -0.00082536 C340.02927425 0.00090497 348.71114728 -0.00202078 357.3930276 -0.00671947 C367.96640398 -0.01231579 378.53975064 -0.01083827 389.1131236 -0.00015798 C394.5127624 0.00511562 399.91235159 0.00712691 405.31199008 0.00054371 C410.24774452 -0.00538312 415.18340298 -0.00219512 420.11914861 0.00849882 C421.91184376 0.01074681 423.70454689 0.00956559 425.49723697 0.00474724 C427.92004388 -0.00126894 430.34251503 0.00483638 432.76530391 0.01418889 C433.82746591 0.00716539 433.82746591 0.00716539 434.91108572 0 C439.72724211 0.03757041 439.72724211 0.03757041 441.95554286 2.26587117 C444.64436056 2.52084526 447.2614318 2.68580143 449.95554286 2.76587117 C457.68527259 2.9956009 457.68527259 2.9956009 459.95554286 5.26587117 C462.11418782 5.51581953 464.28459956 5.66981173 466.45554286 5.76587117 C472.73332064 6.04364894 472.73332064 6.04364894 474.95554286 8.26587117 C477.11418782 8.51581953 479.28459956 8.66981173 481.45554286 8.76587117 C487.73332064 9.04364894 487.73332064 9.04364894 489.95554286 11.26587117 C492.11418782 11.51581953 494.28459956 11.66981173 496.45554286 11.76587117 C502.73332064 12.04364894 502.73332064 12.04364894 504.95554286 14.26587117 C507.32284487 14.65297497 507.32284487 14.65297497 509.95554286 14.76587117 C514.73332064 15.04364894 514.73332064 15.04364894 516.95554286 17.26587117 C518.68804286 17.51337117 518.68804286 17.51337117 520.45554286 17.76587117 C523.95554286 18.26587117 523.95554286 18.26587117 525.95554286 20.26587117 C526.73929286 20.55462117 527.52304286 20.84337117 528.33054286 21.14087117 C531.28320409 22.40629741 532.70388938 24.01421768 534.95554286 26.26587117 C537.3462302 27.37223512 537.3462302 27.37223512 539.95554286 28.26587117 C544.85160824 30.28815904 547.7260438 32.94226275 551.30319911 36.70727742 C552.93049554 38.43320009 552.93049554 38.43320009 555.45554286 39.26587117 C558.88619599 40.63813242 560.75013291 43.02397449 563.26804286 45.67212117 C564.92261245 47.43032789 564.92261245 47.43032789 567.45554286 48.26587117 C570.8485705 49.62308222 572.69555176 51.91984334 575.11179286 54.60962117 C576.86895107 56.39997843 576.86895107 56.39997843 579.25754482 57.08105671 C582.53420851 58.51998974 584.43425243 60.35633643 586.96726161 62.87915242 C587.88958583 63.79760945 588.81191005 64.71606648 589.76218349 65.66235554 C590.23502773 66.14148396 590.70787196 66.62061238 591.19504482 67.11425984 C592.63874858 68.5740291 594.09776031 70.01709854 595.55905849 71.45923054 C596.47751552 72.38155476 597.39597255 73.30387898 598.34226161 74.25415242 C599.5984933 75.51545979 599.5984933 75.51545979 600.88010341 76.80224812 C602.95178489 79.26141031 603.87267326 81.27383958 604.95554286 84.26587117 C605.61554286 84.92587117 606.27554286 85.58587117 606.95554286 86.26587117 C609.19191817 88.50224648 609.79402257 90.36207043 610.95554286 93.26587117 C611.61554286 93.92587117 612.27554286 94.58587117 612.95554286 95.26587117 C615.19191817 97.50224648 615.79402257 99.36207043 616.95554286 102.26587117 C617.61554286 102.92587117 618.27554286 103.58587117 618.95554286 104.26587117 C621.21817692 106.52850523 621.88717517 108.27444162 622.95554286 111.26587117 C623.93841295 113.27434482 624.93931628 115.27406707 625.95554286 117.26587117 C627.50567249 120.36613042 629.05393485 123.46643946 630.58054286 126.57837117 C631.70712805 129.11993318 631.70712805 129.11993318 632.95554286 130.26587117 C633.09991786 131.40024617 633.24429286 132.53462117 633.39304286 133.70337117 C633.60401837 137.30646114 633.60401837 137.30646114 635.95554286 139.26587117 C636.34277007 142.61010616 636.46300202 145.93444819 636.61179286 149.29712117 C636.65755615 152.38193888 636.65755615 152.38193888 638.95554286 154.26587117 C639.33662464 156.82951224 639.46140656 159.3667267 639.61179286 161.95337117 C639.74932965 164.456627 639.74932965 164.456627 641.95554286 166.26587117 C642.33662464 168.82951224 642.46140656 171.3667267 642.61179286 173.95337117 C642.74932965 176.456627 642.74932965 176.456627 644.95554286 178.26587117 C645.34277007 181.61010616 645.46300202 184.93444819 645.61179286 188.29712117 C645.65755615 191.38193888 645.65755615 191.38193888 647.95554286 193.26587117 C648.20805055 195.6535846 648.20805055 195.6535846 648.21166927 198.72258198 C648.21790136 199.8887848 648.22413346 201.05498763 648.2305544 202.25652993 C648.22560594 204.19511014 648.22560594 204.19511014 648.22055751 206.17285359 C648.22412532 207.55084012 648.22857466 208.92882461 648.23383409 210.30680573 C648.2458022 214.10657529 648.24531037 217.90625897 648.242899 221.70604289 C648.24248086 225.79880511 648.25356479 229.89153723 648.26335841 233.98428547 C648.27883816 241.08007149 648.28722831 248.17583756 648.29106838 255.27163899 C648.29680583 265.53325192 648.31537605 275.79481107 648.33750892 286.0564003 C648.37325635 302.70661879 648.40155842 319.35684032 648.42380458 336.0070821 C648.42513957 337.00429181 648.42647456 338.00150152 648.42785001 339.02892971 C648.43862744 347.12089575 648.44904618 355.21286224 648.45945007 363.30482876 C648.46855942 370.37810615 648.47781196 377.45138332 648.48728114 384.52466023 C648.48927726 386.01866063 648.48927726 386.01866063 648.4913137 387.54284286 C648.51371651 404.12925337 648.54389899 420.7156409 648.57967359 437.30202782 C648.60137965 447.54223071 648.61597061 457.78239783 648.62151235 468.02262247 C648.62574855 475.03463431 648.63695714 482.04661209 648.65373629 489.05860507 C648.66317331 493.10941712 648.66924368 497.16016541 648.666673 501.21098912 C648.66437308 504.91438083 648.67111695 508.6176383 648.68525183 512.32100272 C648.69039059 514.30573325 648.68559759 516.29048169 648.68053132 518.27521241 C648.68676342 519.44141523 648.69299551 520.60761805 648.69941646 521.80916035 C648.70061064 522.82192949 648.70180481 523.83469862 648.70303518 524.87815773 C648.72215495 527.45169771 648.72215495 527.45169771 650.95554286 529.26587117 C651.15451393 532.32881108 651.22816605 535.30137569 651.21433192 538.36548054 C651.21958888 539.78024426 651.21958888 539.78024426 651.22495204 541.22358906 C651.23378014 544.35234052 651.22791638 547.48086727 651.22116786 550.60962117 C651.2225142 552.77673587 651.22445447 554.94385028 651.2269662 557.11096394 C651.22991893 561.65725778 651.22561503 566.20347315 651.21628505 570.74975789 C651.20489047 576.5877502 651.21144914 582.42555864 651.22342998 588.2635442 C651.23064455 592.73982334 651.2283625 597.21605863 651.22317439 601.69233906 C651.22183678 603.84540528 651.22348949 605.99847544 651.2281335 608.15153706 C651.23319211 611.15655315 651.22549784 614.16126822 651.21433192 617.16626179 C651.21838039 618.06295079 651.22242885 618.95963978 651.22659999 619.88350117 C651.1840704 626.03734363 651.1840704 626.03734363 648.95554286 628.26587117 C648.61916227 630.26485973 648.61916227 630.26485973 648.61179286 632.54712117 C648.56732021 633.80975789 648.56732021 633.80975789 648.52194911 635.09790242 C648.50003505 635.9783321 648.47812099 636.85876179 648.45554286 637.76587117 C648.41223831 639.50569517 648.36055403 641.24533686 648.29929286 642.98462117 C648.28060146 643.75741414 648.26191005 644.5302071 648.24265224 645.32641804 C647.95554286 647.26587117 647.95554286 647.26587117 645.95554286 649.26587117 C645.70056877 651.95468886 645.5356126 654.57176011 645.45554286 657.26587117 C645.22581313 664.9956009 645.22581313 664.9956009 642.95554286 667.26587117 C642.6178281 669.55867445 642.6178281 669.55867445 642.61179286 672.20337117 C642.58214442 673.18048054 642.55249599 674.15758992 642.52194911 675.16430867 C642.50003505 676.18782429 642.47812099 677.21133992 642.45554286 678.26587117 C642.4122712 680.28691238 642.36060317 682.30779672 642.29929286 684.32837117 C642.27125575 685.67608601 642.27125575 685.67608601 642.24265224 687.05102742 C641.95554286 689.26587117 641.95554286 689.26587117 639.95554286 691.26587117 C639.70056877 693.95468886 639.5356126 696.57176011 639.45554286 699.26587117 C639.22581313 706.9956009 639.22581313 706.9956009 636.95554286 709.26587117 C636.79054286 710.42087117 636.62554286 711.57587117 636.45554286 712.76587117 C635.95554286 716.26587117 635.95554286 716.26587117 633.95554286 718.26587117 C633.79054286 719.42087117 633.62554286 720.57587117 633.45554286 721.76587117 C632.95554286 725.26587117 632.95554286 725.26587117 630.95554286 727.26587117 C630.26513712 728.92284495 629.60247937 730.59144727 628.95554286 732.26587117 C627.97267278 734.27434482 626.97176944 736.27406707 625.95554286 738.26587117 C625.46054286 739.25587117 624.96554286 740.24587117 624.45554286 741.26587117 C621.95554286 746.26587117 619.45554286 751.26587117 616.95554286 756.26587117 C616.24398036 757.81274617 616.24398036 757.81274617 615.51804286 759.39087117 C613.95269171 762.27111729 612.25134959 763.97006444 609.95554286 766.26587117 C609.68741786 767.02899617 609.41929286 767.79212117 609.14304286 768.57837117 C607.62290884 772.01867449 605.38368892 773.93211284 602.61179286 776.42212117 C600.82468891 778.16350629 600.82468891 778.16350629 600.22238857 780.48584187 C598.52339604 784.21419567 595.90204066 786.74870523 593.02976161 789.59008992 C592.44515666 790.17756505 591.86055171 790.76504017 591.25823146 791.37031758 C590.02373262 792.60685231 588.78545945 793.83962901 587.54367763 795.06884968 C585.64939613 796.94707177 583.77164268 798.84075055 581.89499599 800.73657429 C580.69087855 801.93870921 579.48583079 803.13991313 578.27976161 804.34008992 C577.72125011 804.90467412 577.1627386 805.46925831 576.58730251 806.05095112 C573.54125186 809.0430324 570.992814 810.89948497 566.95554286 812.26587117 C566.29554286 812.92587117 565.63554286 813.58587117 564.95554286 814.26587117 C562.6929088 816.52850523 560.94697241 817.19750347 557.95554286 818.26587117 C554.77844075 819.69232518 552.3635793 820.85783472 549.89304286 823.32837117 C547.66899494 825.55241909 545.89877899 826.21471541 542.95554286 827.26587117 C539.77844075 828.69232518 537.3635793 829.85783472 534.89304286 832.32837117 C532.66899494 834.55241909 530.89877899 835.21471541 527.95554286 836.26587117 C524.20625117 837.88848372 524.20625117 837.88848372 520.95554286 840.26587117 C519.82116786 840.41024617 518.68679286 840.55462117 517.51804286 840.70337117 C513.91495289 840.91434668 513.91495289 840.91434668 511.95554286 843.26587117 C510.29737502 843.95340417 508.6309495 844.621484 506.95554286 845.26587117 C506.62554286 845.59587117 506.29554286 845.92587117 505.95554286 846.26587117 C503.40798182 846.5489335 500.86044264 846.71402902 498.30319911 846.88696492 C495.77041514 847.06072841 495.77041514 847.06072841 493.95554286 849.26587117 C490.61130787 849.65309838 487.28696584 849.77333033 483.92429286 849.92212117 C480.83947515 849.96788445 480.83947515 849.96788445 478.95554286 852.26587117 C475.61130787 852.65309838 472.28696584 852.77333033 468.92429286 852.92212117 C465.83947515 852.96788445 465.83947515 852.96788445 463.95554286 855.26587117 C461.75437099 855.53088582 461.75437099 855.53088582 458.98679286 855.55298054 C457.95232021 855.56639485 456.91784755 855.57980916 455.85202724 855.59362996 C454.73118739 855.59890706 453.61034755 855.60418416 452.45554286 855.60962117 C451.30892177 855.62424397 450.16230067 855.63886677 448.98093349 855.65393269 C444.0585209 855.71640071 439.13598018 855.75585963 434.21335536 855.79760945 C430.62728151 855.83125258 427.04147955 855.87638989 423.45554286 855.92212117 C422.33470302 855.92739827 421.21386317 855.93267537 420.05905849 855.93811238 C419.02458583 855.95152668 417.99011317 855.96494099 416.92429286 855.97876179 C416.01099208 855.98605305 415.0976913 855.99334431 414.15671474 856.00085652 C411.74880222 856.06093599 411.74880222 856.06093599 409.95554286 858.26587117 C407.41394073 858.5165695 407.41394073 858.5165695 404.12401515 858.51755345 C402.24930868 858.52537669 402.24930868 858.52537669 400.33672935 858.53335798 C398.93696153 858.52903319 397.53719429 858.52451985 396.13742763 858.51983845 C394.6604468 858.52214081 393.18346712 858.52531581 391.70648986 858.52929294 C387.63307548 858.53768061 383.55975421 858.53349776 379.48633939 858.5273205 C375.099104 858.52281317 370.71188512 858.52977119 366.32465297 858.53528035 C357.72422874 858.54419444 349.12383933 858.54224339 340.52341372 858.53645507 C333.53644189 858.53194649 326.54947984 858.53132218 319.56250697 858.5335027 C318.56977608 858.53380916 317.57704518 858.53411563 316.55423152 858.53443138 C314.53780005 858.5350708 312.52136858 858.53571923 310.50493711 858.53637657 C291.57697684 858.54208577 272.64903591 858.53551273 253.72107881 858.52477583 C237.46426287 858.51583979 221.20747548 858.51739166 204.95066005 858.52661335 C186.09249429 858.53730558 167.2343455 858.54153639 148.37617713 858.53538883 C146.36697767 858.5347517 144.35777821 858.53412296 142.34857875 858.5335027 C141.35989868 858.53319415 140.3712186 858.5328856 139.35257852 858.53256769 C132.37038583 858.53083761 125.38820386 858.5337626 118.40601283 858.5384618 C109.90223948 858.54405903 101.39850306 858.5425787 92.89473397 858.53190032 C88.55228021 858.52662792 84.20988816 858.52461337 79.8674348 858.53119862 C75.89759263 858.53712796 71.92786975 858.53393329 67.95803851 858.52324352 C66.51661988 858.5209966 65.07519131 858.52217441 63.63377899 858.52699509 C61.68488294 858.53301649 59.73595895 858.52568626 57.78707057 858.51755345 C56.70139513 858.51722874 55.61571969 858.51690404 54.497145 858.5165695 C51.95554286 858.26587117 51.95554286 858.26587117 49.95554286 856.26587117 C47.66590012 855.94866809 47.66590012 855.94866809 44.98679286 855.97876179 C43.95232021 855.96534749 42.91784755 855.95193318 41.85202724 855.93811238 C40.73118739 855.93283528 39.61034755 855.92755818 38.45554286 855.92212117 C37.30892177 855.90749836 36.16230067 855.89287556 34.98093349 855.87780964 C31.30583871 855.83117075 27.63079952 855.79704179 23.95554286 855.76587117 C19.12200457 855.72487691 14.28885698 855.67126019 9.45554286 855.60962117 C8.33470302 855.60434407 7.21386317 855.59906697 6.05905849 855.59362996 C5.02458583 855.58021565 3.99011317 855.56680134 2.92429286 855.55298054 C2.01099208 855.54568928 1.0976913 855.53839802 0.15671474 855.53088582 C-2.04445714 855.26587117 -2.04445714 855.26587117 -4.04445714 853.26587117 C-7.21786011 852.92566293 -7.21786011 852.92566293 -10.95070714 852.92212117 C-11.97146336 852.90018696 -11.97146336 852.90018696 -13.01284093 852.87780964 C-15.18998681 852.83125369 -17.36704032 852.79708001 -19.54445714 852.76587117 C-22.4093827 852.72480829 -25.27365681 852.67117517 -28.13820714 852.60962117 C-30.05149815 852.58158406 -30.05149815 852.58158406 -32.00344151 852.55298054 C-35.04445714 852.26587117 -35.04445714 852.26587117 -37.04445714 850.26587117 C-39.20310209 850.0159228 -41.37351384 849.86193061 -43.54445714 849.76587117 C-49.82223492 849.48809339 -49.82223492 849.48809339 -52.04445714 847.26587117 C-53.19945714 847.10087117 -54.35445714 846.93587117 -55.54445714 846.76587117 C-59.04445714 846.26587117 -59.04445714 846.26587117 -61.04445714 844.26587117 C-62.19945714 844.10087117 -63.35445714 843.93587117 -64.54445714 843.76587117 C-68.04445714 843.26587117 -68.04445714 843.26587117 -70.04445714 841.26587117 C-71.70143092 840.57546542 -73.37003324 839.91280767 -75.04445714 839.26587117 C-80.82223492 836.48809339 -80.82223492 836.48809339 -82.04445714 835.26587117 C-83.17883214 835.12149617 -84.31320714 834.97712117 -85.48195714 834.82837117 C-89.04445714 834.26587117 -89.04445714 834.26587117 -91.04445714 832.26587117 C-92.70143092 831.57546542 -94.37003324 830.91280767 -96.04445714 830.26587117 C-100.21621929 828.3928351 -102.84158949 826.46873881 -106.04445714 823.26587117 C-106.80758214 822.99774617 -107.57070714 822.72962117 -108.35695714 822.45337117 C-111.79726046 820.93323714 -113.71069881 818.69401723 -116.20070714 815.92212117 C-117.97104928 814.12666554 -117.97104928 814.12666554 -120.42141026 813.38891804 C-123.28034951 812.16487481 -124.73206507 810.88654657 -126.85695714 808.64087117 C-127.54016026 807.93446492 -128.22336339 807.22805867 -128.92726964 806.50024617 C-130.33872797 805.01066283 -131.7501863 803.5210795 -133.16164464 802.03149617 C-133.84484776 801.32508992 -134.52805089 800.61868367 -135.23195714 799.89087117 C-136.15041417 798.9202071 -136.15041417 798.9202071 -137.08742589 797.92993367 C-139.27997268 796.06561244 -141.3855981 795.31058307 -144.04445714 794.26587117 C-144.7111238 792.5992045 -145.37779047 790.93253783 -146.04445714 789.26587117 C-147.1733603 788.06262561 -148.34494663 786.8987422 -149.54445714 785.76587117 C-152.39400764 783.05732935 -153.73196609 781.00142262 -155.04445714 777.26587117 C-155.70445714 776.60587117 -156.36445714 775.94587117 -157.04445714 775.26587117 C-159.3070912 773.00323711 -159.97608944 771.25730071 -161.04445714 768.26587117 C-162.47091115 765.08876905 -163.6364207 762.67390761 -166.10695714 760.20337117 C-168.33100506 757.97932325 -168.99330138 756.2091073 -170.04445714 753.26587117 C-171.47091115 750.08876905 -172.6364207 747.67390761 -175.10695714 745.20337117 C-177.3039631 743.0063652 -177.90211885 741.12171688 -179.04445714 738.26587117 C-179.70445714 737.60587117 -180.36445714 736.94587117 -181.04445714 736.26587117 C-183.3070912 734.00323711 -183.97608944 732.25730071 -185.04445714 729.26587117 C-186.66706969 725.51657948 -186.66706969 725.51657948 -189.04445714 722.26587117 C-189.18883214 721.13149617 -189.33320714 719.99712117 -189.48195714 718.82837117 C-189.69293265 715.22528119 -189.69293265 715.22528119 -192.04445714 713.26587117 C-192.42553892 710.70223009 -192.55032083 708.16501564 -192.70070714 705.57837117 C-192.83824393 703.07511533 -192.83824393 703.07511533 -195.04445714 701.26587117 C-195.43168435 697.92163618 -195.5519163 694.59729415 -195.70070714 691.23462117 C-195.74647042 688.14980346 -195.74647042 688.14980346 -198.04445714 686.26587117 C-198.43168435 682.92163618 -198.5519163 679.59729415 -198.70070714 676.23462117 C-198.74647042 673.14980346 -198.74647042 673.14980346 -201.04445714 671.26587117 C-201.43168435 667.92163618 -201.5519163 664.59729415 -201.70070714 661.23462117 C-201.74647042 658.14980346 -201.74647042 658.14980346 -204.04445714 656.26587117 C-204.24135458 653.83157688 -204.31224373 651.51108281 -204.29613942 649.07563221 C-204.2990463 648.32259743 -204.30195318 647.56956264 -204.30494815 646.79370862 C-204.31230755 644.2440264 -204.30527739 641.69458038 -204.29842442 639.14489949 C-204.30072651 637.30906134 -204.30390133 635.47322411 -204.30787891 633.63738883 C-204.31627017 628.57204359 -204.3120821 623.50677318 -204.30590647 618.44142759 C-204.3014006 612.98669885 -204.30835643 607.53198341 -204.31386632 602.07725728 C-204.32278199 591.38331352 -204.32082866 580.68939776 -204.31504104 569.99545288 C-204.31053307 561.30796647 -204.30990788 552.62048793 -204.31208867 543.93300068 C-204.31239513 542.69881336 -204.3127016 541.46462603 -204.31301735 540.19303909 C-204.31365677 537.68618862 -204.3143052 535.17933814 -204.31496254 532.67248768 C-204.32050928 509.81067933 -204.314747 486.94888368 -204.30427734 464.08707804 C-204.29478561 443.20184333 -204.29563485 422.31663301 -204.30519933 401.43139851 C-204.3159007 377.98505342 -204.32012282 354.53871998 -204.3139748 331.09237254 C-204.31333767 328.59449558 -204.31270893 326.09661861 -204.31208867 323.59874165 C-204.31178012 322.36958398 -204.31147157 321.14042631 -204.31115367 319.87402144 C-204.30942333 311.19213978 -204.31234909 302.51026675 -204.31704777 293.82838643 C-204.3226441 283.25501005 -204.32116657 272.68166339 -204.31048629 262.10829043 C-204.30521268 256.70865163 -204.3032014 251.30906244 -204.30978459 245.90942395 C-204.31571143 240.97366951 -204.31252343 236.03801105 -204.30182949 231.10226542 C-204.2995815 229.30957027 -204.30076272 227.51686714 -204.30558106 225.72417706 C-204.31159724 223.30137015 -204.30549192 220.878899 -204.29613942 218.45611012 C-204.30082175 217.74800212 -204.30550408 217.03989412 -204.3103283 216.3103283 C-204.27275789 211.49417192 -204.27275789 211.49417192 -202.04445714 209.26587117 C-201.78948305 206.57705347 -201.62452687 203.95998223 -201.54445714 201.26587117 C-201.31472741 193.53614144 -201.31472741 193.53614144 -199.04445714 191.26587117 C-198.78948305 188.57705347 -198.62452687 185.95998223 -198.54445714 183.26587117 C-198.31472741 175.53614144 -198.31472741 175.53614144 -196.04445714 173.26587117 C-195.78948305 170.57705347 -195.62452687 167.95998223 -195.54445714 165.26587117 C-195.31472741 157.53614144 -195.31472741 157.53614144 -193.04445714 155.26587117 C-192.79450877 153.10722621 -192.64051658 150.93681447 -192.54445714 148.76587117 C-192.26667936 142.48809339 -192.26667936 142.48809339 -190.04445714 140.26587117 C-189.87945714 139.11087117 -189.71445714 137.95587117 -189.54445714 136.76587117 C-189.04445714 133.26587117 -189.04445714 133.26587117 -187.04445714 131.26587117 C-186.35405139 129.60889738 -185.69139364 127.94029506 -185.04445714 126.26587117 C-184.06158705 124.25739752 -183.06068372 122.25767526 -182.04445714 120.26587117 C-181.54945714 119.27587117 -181.05445714 118.28587117 -180.54445714 117.26587117 C-178.04445714 112.26587117 -175.54445714 107.26587117 -173.04445714 102.26587117 C-172.57008214 101.23462117 -172.09570714 100.20337117 -171.60695714 99.14087117 C-170.04160598 96.26062505 -168.34026387 94.56167789 -166.04445714 92.26587117 C-165.77633214 91.50274617 -165.50820714 90.73962117 -165.23195714 89.95337117 C-163.71182311 86.51306785 -161.4726032 84.59962949 -158.70070714 82.10962117 C-156.91487345 80.37609361 -156.91487345 80.37609361 -156.35231847 78.08691609 C-154.48081892 74.05010869 -151.59985714 71.39260122 -148.46242589 68.28540242 C-147.8112328 67.63133915 -147.16003972 66.97727589 -146.48911351 66.30339253 C-145.11338017 64.92562209 -143.7338685 63.5516154 -142.35085362 62.18115437 C-140.23930698 60.08566512 -138.14422914 57.9746678 -136.05031651 55.86157429 C-134.70948046 54.52272073 -133.36771405 53.18479812 -132.02492589 51.84790242 C-131.08872662 50.90259411 -131.08872662 50.90259411 -130.13361424 49.93818867 C-126.91883998 46.77461177 -124.41117178 44.68961985 -120.04445714 43.26587117 C-119.05445714 42.27587117 -119.05445714 42.27587117 -118.04445714 41.26587117 C-115.78182308 39.00323711 -114.03588668 38.33423886 -111.04445714 37.26587117 C-107.86735502 35.83941716 -105.45249358 34.67390761 -102.98195714 32.20337117 C-100.78495117 30.0063652 -98.90030285 29.40820945 -96.04445714 28.26587117 C-95.38445714 27.60587117 -94.72445714 26.94587117 -94.04445714 26.26587117 C-91.78182308 24.00323711 -90.03588668 23.33423886 -87.04445714 22.26587117 C-85.03598349 21.28300108 -83.03626123 20.28209774 -81.04445714 19.26587117 C-79.95133214 18.72962117 -78.85820714 18.19337117 -77.73195714 17.64087117 C-75.19039512 16.51428598 -75.19039512 16.51428598 -74.04445714 15.26587117 C-72.34289464 15.04930867 -72.34289464 15.04930867 -70.60695714 14.82837117 C-67.00386716 14.61739566 -67.00386716 14.61739566 -65.04445714 12.26587117 C-62.48081606 11.88478939 -59.94360161 11.76000747 -57.35695714 11.60962117 C-54.8537013 11.47208438 -54.8537013 11.47208438 -53.04445714 9.26587117 C-49.70022215 8.87864396 -46.37588012 8.75841201 -43.01320714 8.60962117 C-39.92838943 8.56385788 -39.92838943 8.56385788 -38.04445714 6.26587117 C-34.70022215 5.87864396 -31.37588012 5.75841201 -28.01320714 5.60962117 C-24.92838943 5.56385788 -24.92838943 5.56385788 -23.04445714 3.26587117 C-19.62253303 2.94137836 -16.24307747 2.8014945 -12.81008214 2.69946492 C-7.66646828 2.48358331 -5.04511814 0.03935652 0 0 Z M-53.04445714 54.26587117 C-53.73442784 54.52094441 -54.42439854 54.77601765 -55.13527745 55.03882039 C-95.8142115 70.3736236 -127.38788326 102.15228786 -145.71926183 141.2805196 C-160.68564578 174.99624234 -163.21775746 213.05766753 -163.17816991 249.51301777 C-163.1800437 251.17985573 -163.18234663 252.84669324 -163.18503523 254.51353008 C-163.19108924 259.04274977 -163.19102729 263.57195083 -163.18984085 268.10117364 C-163.18963522 273.0058732 -163.19517094 277.91056704 -163.19989842 282.81526387 C-163.20816966 292.40425902 -163.21095163 301.99324803 -163.2115108 311.58224646 C-163.21198752 319.38201339 -163.21405 327.18177832 -163.21721143 334.98154461 C-163.22600737 357.13615533 -163.23063231 379.29076122 -163.22988095 401.44537369 C-163.229841 402.63725358 -163.22980104 403.82913347 -163.22975987 405.05713093 C-163.22971899 406.25047957 -163.22967811 407.4438282 -163.22963599 408.67333891 C-163.22922953 428.01306888 -163.23880178 447.35277939 -163.25289824 466.69250373 C-163.2672862 486.59039823 -163.27416713 506.48828325 -163.27330446 526.38618308 C-163.27297339 537.54137265 -163.27568111 548.69654179 -163.28648251 559.85172665 C-163.29561929 569.34788137 -163.29773668 578.8440064 -163.29097309 588.34016363 C-163.28772424 593.17709172 -163.28759163 598.01396294 -163.29632634 602.85088551 C-163.40899403 629.6221594 -163.40899403 629.6221594 -161.04445714 656.26587117 C-160.8267167 658.2016014 -160.61202673 660.13768475 -160.40383214 662.07446492 C-158.83250595 674.53755584 -155.91830333 686.32580003 -152.04445714 698.26587117 C-151.82451085 698.95954792 -151.60456456 699.65322468 -151.37795323 700.36792195 C-138.1940081 741.19856958 -108.18357003 775.10304676 -70.45851964 795.10571492 C-30.2118462 815.37763188 13.98870185 816.58506492 58.0914287 816.54197955 C62.90082731 816.53947942 67.71020767 816.54856675 72.51959926 816.55601704 C81.90899947 816.56867725 91.29837097 816.57056857 100.68777829 816.56821678 C108.33325037 816.56642323 115.97871384 816.56820529 123.62418491 816.57244122 C124.71835021 816.57303641 125.81251552 816.5736316 126.93983736 816.57424482 C129.16372714 816.57545677 131.38761692 816.5766709 133.61150671 816.5778872 C154.4047106 816.58872986 175.19789821 816.58661615 195.991103 816.58050235 C214.93612034 816.57533925 233.88108616 816.5865785 252.82609331 816.60560057 C272.36044815 816.6250613 291.89477873 816.63322042 311.42914331 816.62947732 C322.36333922 816.6275773 333.29749135 816.62993416 344.23167926 816.64419186 C353.54316691 816.65621245 362.85458385 816.65739298 372.16607266 816.64540169 C376.89950226 816.63958608 381.63280325 816.63820508 386.36622363 816.6504041 C404.18751148 816.69310738 421.88085593 816.47263498 439.64086086 814.87932026 C440.33147445 814.81756721 441.02208805 814.75581415 441.73362934 814.69218979 C469.12282428 812.17516427 495.80307631 805.70204062 519.95554286 792.26587117 C521.01773036 791.69094929 522.07991786 791.11602742 523.17429286 790.52368367 C535.42622962 783.67144069 545.84719074 774.89904435 555.95554286 765.26587117 C556.67483974 764.59942585 557.39413661 763.93298054 558.13523036 763.24633992 C579.15085609 743.20131538 591.64923889 715.92933065 598.95554286 688.26587117 C599.20449306 687.35700154 599.45344325 686.44813191 599.70993739 685.51172078 C601.78064908 677.6824523 603.02429383 669.85163881 604.08054286 661.82837117 C604.24941005 660.60827351 604.41827724 659.38817585 604.59226161 658.13110554 C606.42411704 644.56527856 607.10458622 631.15912481 607.09598476 617.48678792 C607.09857416 615.821718 607.1015889 614.15664871 607.10498816 612.49158025 C607.11299494 607.94807959 607.11484418 603.40459479 607.11558563 598.86108792 C607.11744746 593.94716805 607.12500071 589.03325619 607.13172084 584.11934102 C607.14526303 573.38463319 607.1513234 562.64992912 607.1557315 551.91521418 C607.15850277 545.19588816 607.16274188 538.47656356 607.16723567 531.75723851 C607.17942651 513.10914589 607.18972389 494.4610544 607.19311076 475.81295788 C607.19344011 474.02487309 607.19344011 474.02487309 607.19377612 472.20066536 C607.19399439 471.00592791 607.19421267 469.81119045 607.19443756 468.58024883 C607.19488101 466.15970107 607.19532757 463.73915331 607.19577724 461.31860554 C607.19610938 459.5176338 607.19610938 459.5176338 607.19644824 457.68027879 C607.20038643 438.27605387 607.21781131 418.87186672 607.24113676 399.46765636 C607.26495819 379.48732505 607.27731761 359.5070126 607.27847868 339.52666688 C607.27938979 328.33236209 607.28499753 317.13810645 607.30329829 305.94381535 C607.3188462 296.40040649 607.32373484 286.85706193 607.31556019 277.31364278 C607.3117039 272.46067943 607.31233046 267.60784494 607.32661754 262.75489819 C607.50194184 199.48356631 601.95282366 140.38514017 556.25827724 92.63159382 C555.20264843 91.52492449 554.16257372 90.40343251 553.12741786 89.27758992 C526.9326884 61.5614494 489.76101526 48.86139713 453.01804286 43.57837117 C452.21012294 43.45889119 451.40220302 43.33941121 450.56980067 43.21631062 C429.14896078 40.34648331 407.2827533 41.10937308 385.72022992 41.1058284 C380.80929368 41.10395692 375.89836531 41.09639969 370.98743373 41.08969319 C360.28046907 41.076196 349.57350819 41.07009925 338.86653644 41.06568253 C332.16515079 41.06290655 325.46376655 41.05866694 318.76238185 41.05417836 C300.1603142 41.04199905 281.55824766 41.03169576 262.9561761 41.02830327 C261.76907209 41.0280837 260.58196808 41.02786413 259.35889122 41.02763791 C258.1691772 41.02741964 256.97946318 41.02720136 255.75369722 41.02697647 C253.34344004 41.02653302 250.93318285 41.02608646 248.52292567 41.02563679 C247.3273908 41.02541536 246.13185593 41.02519393 244.90009272 41.02496579 C225.54008285 41.02101998 206.18011066 41.00356653 186.82011533 40.98027727 C166.88140667 40.95648785 146.94271687 40.94409805 127.00399381 40.94293535 C115.83404955 40.94202307 104.66415448 40.93638399 93.49422389 40.91811574 C83.98225862 40.90261212 74.47035777 40.89765431 64.95838225 40.90585384 C60.11838904 40.9097238 55.27852514 40.90901277 50.43854839 40.89479649 C15.55667813 40.79843312 -19.92956798 42.02334572 -53.04445714 54.26587117 Z " fill="#FEFEFE" transform="translate(290.0444571375847,82.73412883281708)"/>
<path d="M0 0 C1.14533203 -0.01611328 2.29066406 -0.03222656 3.47070312 -0.04882812 C10.451654 -0.05281952 16.85313031 0.47690012 23.3125 3.3125 C23.9725 3.9725 24.6325 4.6325 25.3125 5.3125 C23.7346875 5.9003125 23.7346875 5.9003125 22.125 6.5 C21.39667969 6.77585937 20.66835938 7.05171875 19.91796875 7.3359375 C18.03023479 8.04348396 16.13610058 8.73403067 14.23828125 9.4140625 C0.61338575 14.08193588 0.61338575 14.08193588 -8.6875 24.3125 C-9.38329454 26.50380534 -9.38329454 26.50380534 -9.6875 28.3125 C-8.31145411 27.77349585 -6.93676813 27.23102083 -5.5625 26.6875 C-4.63953125 26.32269531 -3.7165625 25.95789063 -2.765625 25.58203125 C-0.69470499 24.72790815 1.35795247 23.82824854 3.390625 22.88671875 C16.02645614 17.09280092 31.22329499 11.55134937 45.3125 13.3125 C46.09625 13.40789062 46.88 13.50328125 47.6875 13.6015625 C54.66205545 14.80325955 60.4484058 17.97048278 65.1875 23.25 C69.3923007 29.30985984 70.13412566 35.09467458 69.3125 42.3125 C65.76498917 57.39473166 54.82707815 66.73239886 42.15185547 74.68945312 C22.27283861 86.68703029 0.5058468 96.08141013 -20.76171875 105.29296875 C-29.56583753 109.11208297 -38.31251761 113.05887009 -47.0625 117 C-47.91918274 117.3857016 -48.77586548 117.7714032 -49.6585083 118.16879272 C-63.11241385 124.2282106 -76.54346551 130.33665663 -89.95678711 136.48535156 C-96.943502 139.68786626 -103.93357455 142.88214526 -110.9375 146.046875 C-124.42580311 152.14489653 -137.86952935 158.31738158 -151.23800659 164.67446899 C-168.51433855 172.88900694 -185.92045679 180.7694096 -203.44091797 188.44873047 C-206.85381458 189.94485192 -210.26188815 191.45157026 -213.66850281 192.96192932 C-299.76288018 231.09557776 -382.82054702 237.96794052 -518.6875 229.3125 C-521.50582289 227.85544219 -522.64362362 226.83728847 -524.6875 224.3125 C-525.05249023 221.890625 -525.05249023 221.890625 -524.6875 219.3125 C-519.31744558 212.30696137 -510.79185333 208.27763572 -503.125 204.3125 C-502.02091797 203.72855469 -500.91683594 203.14460937 -499.77929688 202.54296875 C-497.08773595 201.12145172 -494.39072053 199.71167849 -491.6875 198.3125 C-495.3203064 190.88219361 -499.15178039 183.64542065 -503.3125 176.5 C-509.64545382 165.4719417 -515.46607305 154.19771895 -521.25 142.875 C-521.68878479 142.01603119 -522.12756958 141.15706238 -522.57965088 140.27206421 C-527.3197603 130.98370006 -527.3197603 130.98370006 -529.64335632 126.37286377 C-530.36697136 124.94498536 -531.09972353 123.52171476 -531.8396759 122.10223389 C-532.20566391 121.39278625 -532.57165192 120.68333862 -532.94873047 119.95239258 C-533.27960663 119.3184407 -533.61048279 118.68448883 -533.9513855 118.03132629 C-534.6875 116.3125 -534.6875 116.3125 -534.81640625 113.5703125 C-533.13881342 110.21512684 -530.83476339 109.06692518 -527.625 107.1875 C-527.03589844 106.84203125 -526.44679688 106.4965625 -525.83984375 106.140625 C-514.39844583 99.56683935 -514.39844583 99.56683935 -507.6875 100.3125 C-505.49609375 101.75390625 -505.49609375 101.75390625 -503.125 103.875 C-497.94745494 108.31488407 -492.60182025 112.43533975 -487.125 116.5 C-480.5403392 121.40142881 -474.01910501 126.36871687 -467.5625 131.4375 C-454.23107667 141.84469631 -441.06779499 152.10298672 -425.6875 159.3125 C-424.883125 159.69148437 -424.07875 160.07046875 -423.25 160.4609375 C-406.6340933 167.11951776 -388.76605122 158.77382199 -373.5 152.3125 C-370.1107823 150.85562269 -366.72738722 149.38618465 -363.34667969 147.90966797 C-359.45693356 146.21186178 -355.56122499 144.52834164 -351.6640625 142.84765625 C-341.31818936 138.38201606 -330.97623947 133.9086538 -320.6875 129.3125 C-324.83726837 124.92395528 -329.39871055 121.29412295 -334.1875 117.625 C-334.98994141 117.00560547 -335.79238281 116.38621094 -336.61914062 115.74804688 C-338.97256199 113.93265789 -341.32949384 112.12192784 -343.6875 110.3125 C-344.8334619 109.43115672 -345.97931072 108.54966638 -347.125 107.66796875 C-349.176358 106.09020233 -351.22844858 104.51338796 -353.28125 102.9375 C-358.21476803 99.14248613 -363.12107158 95.31232477 -368.03076172 91.48657227 C-372.4412871 88.05185577 -376.86832372 84.64102781 -381.3125 81.25 C-386.84739849 77.00309675 -392.26331466 72.62203233 -397.6652832 68.20776367 C-402.07284135 64.61015728 -406.51664018 61.06510551 -411 57.5625 C-416.96731141 52.89744945 -422.83699909 48.12341774 -428.6875 43.3125 C-431.53842225 40.97517582 -434.39341022 38.6428926 -437.25 36.3125 C-437.95366699 35.73580566 -438.65733398 35.15911133 -439.38232422 34.56494141 C-440.37063232 33.75935791 -440.37063232 33.75935791 -441.37890625 32.9375 C-442.26364624 32.21433594 -442.26364624 32.21433594 -443.16625977 31.4765625 C-444.69791949 30.22879764 -444.69791949 30.22879764 -446.6875 29.3125 C-445.4504239 25.53394784 -443.25896864 24.19899192 -439.83837891 22.36865234 C-439.19046387 22.04074707 -438.54254883 21.7128418 -437.875 21.375 C-437.20645996 21.03162598 -436.53791992 20.68825195 -435.84912109 20.33447266 C-419.82445934 12.2482168 -412.6180376 12.76526804 -395.76171875 17.7265625 C-394.06230888 18.22282387 -394.06230888 18.22282387 -392.3285675 18.72911072 C-388.67662539 19.79601776 -385.02581903 20.86675695 -381.375 21.9375 C-376.3792664 23.39836895 -371.38298776 24.85736963 -366.38671875 26.31640625 C-365.17515106 26.67051071 -363.96358337 27.02461517 -362.71530151 27.38945007 C-353.11433125 30.19370531 -343.50399777 32.96224045 -333.8737793 35.66455078 C-327.32677599 37.51485405 -320.82119165 39.48810778 -314.31640625 41.48046875 C-300.1284647 45.82019551 -285.87739045 49.94073364 -271.625 54.0625 C-266.82525917 55.45114143 -262.02561227 56.84010743 -257.226017 58.22925186 C-255.8674903 58.62239841 -254.50893685 59.01545253 -253.15035629 59.40841293 C-244.5633777 61.89230503 -235.98291596 64.39713411 -227.41015625 66.9296875 C-224.80322147 67.69668316 -222.19610301 68.46305044 -219.58889771 69.22912598 C-218.00429 69.69655998 -216.42050646 70.16679821 -214.83761597 70.64001465 C-212.69585816 71.28016731 -210.55148294 71.91067289 -208.40625 72.5390625 C-207.24029297 72.88533691 -206.07433594 73.23161133 -204.87304688 73.58837891 C-198.72846189 74.98513236 -194.84581615 74.2714477 -189.12109375 71.70703125 C-188.18762871 71.2943676 -188.18762871 71.2943676 -187.23530579 70.87336731 C-185.19369242 69.96770508 -183.15950519 69.0465056 -181.125 68.125 C-179.68370098 67.48193934 -178.2419619 66.83986419 -176.79980469 66.19873047 C-173.12017884 64.55980125 -169.44643388 62.90813363 -165.77435303 61.25238037 C-162.65057612 59.84548848 -159.52250019 58.44832928 -156.39453125 57.05078125 C-151.69753479 54.9505918 -147.00415682 52.84255648 -142.3125 50.73046875 C-136.80183333 48.25152132 -131.27868648 45.80175191 -125.75 43.36328125 C-122.64552848 41.99287686 -119.54136733 40.62177227 -116.4375 39.25 C-115.66822174 38.91008026 -114.89894348 38.57016052 -114.10635376 38.21994019 C-104.52584792 33.98052248 -95.03438285 29.61008849 -85.625 25 C-69.51203719 17.14547691 -52.97578417 9.98919546 -35.8125 4.75 C-35.07153076 4.5226416 -34.33056152 4.2952832 -33.56713867 4.06103516 C-22.52826177 0.89014954 -11.44384627 -0.03252941 0 0 Z " fill="#FEFEFE" transform="translate(750.6875,287.6875)"/>
<path d="M0 0 C1.21171875 0.00322266 2.4234375 0.00644531 3.671875 0.00976562 C4.94289063 0.01814453 6.21390625 0.02652344 7.5234375 0.03515625 C8.8021875 0.03966797 10.0809375 0.04417969 11.3984375 0.04882812 C14.56515042 0.06064422 17.73177106 0.0771181 20.8984375 0.09765625 C22.93477292 4.66844722 24.61310006 9.14560448 26.00805664 13.9621582 C26.19725677 14.61082352 26.38645691 15.25948883 26.58139038 15.92781067 C27.20296933 18.06266433 27.81827416 20.19927217 28.43359375 22.3359375 C28.87577064 23.85885666 29.31836072 25.3816559 29.76133728 26.90434265 C30.93022519 30.92609726 32.09389958 34.94934142 33.25634766 38.97296143 C34.40184159 42.93525509 35.55150594 46.89633708 36.70117188 50.85742188 C37.15701982 52.42812911 37.61286088 53.99883834 38.06869507 55.56954956 C38.29408337 56.34616817 38.51947166 57.12278679 38.75168991 57.9229393 C39.43239369 60.26930095 40.11245605 62.61584771 40.79238892 64.96243286 C45.44722885 81.02138327 50.16698093 97.06113656 54.8984375 113.09765625 C62.85556506 86.27957221 70.72989725 59.4384484 78.515625 32.57006836 C87.53608619 1.46000756 87.53608619 1.46000756 88.8984375 0.09765625 C90.80128737 -0.00208764 92.70782003 -0.03315005 94.61328125 -0.03515625 C95.77408203 -0.03644531 96.93488281 -0.03773438 98.13085938 -0.0390625 C99.35353516 -0.03519531 100.57621094 -0.03132812 101.8359375 -0.02734375 C103.05474609 -0.03121094 104.27355469 -0.03507813 105.52929688 -0.0390625 C107.27243164 -0.03712891 107.27243164 -0.03712891 109.05078125 -0.03515625 C110.12320068 -0.03402832 111.19562012 -0.03290039 112.30053711 -0.03173828 C114.8984375 0.09765625 114.8984375 0.09765625 116.8984375 1.09765625 C115.2602738 9.39536122 112.68936275 17.35485065 110.09375 25.390625 C109.61293581 26.88946848 109.1325008 28.38843365 108.65242004 29.88751221 C107.37656361 33.86837442 106.09605408 37.84772489 104.81461716 41.82679367 C103.49283722 45.93384356 102.17524697 50.04223623 100.85766602 54.15063477 C100.59744187 54.96203383 100.33721773 55.7734329 100.06910801 56.60941982 C99.5465851 58.23872314 99.02407988 59.86803213 98.50159264 61.49734688 C97.7251435 63.91802693 96.94816474 66.33853648 96.1710968 68.75901794 C93.39747014 77.40130921 90.63805079 86.04769924 87.91796875 94.70703125 C87.50282013 96.02825737 87.50282013 96.02825737 87.07928467 97.37617493 C85.89028528 101.16434237 84.70556024 104.95379446 83.52587891 108.74487305 C81.35398714 115.69928583 79.08688778 122.61922368 76.71484375 129.5078125 C76.46443832 130.25050888 76.2140329 130.99320526 75.95603943 131.75840759 C74.13076917 136.98149041 74.13076917 136.98149041 71.8984375 138.09765625 C69.27216617 138.1843288 66.67281267 138.2132576 64.046875 138.1953125 C63.27284332 138.19389755 62.49881165 138.1924826 61.70132446 138.19102478 C59.22532308 138.18542028 56.74941162 138.17286708 54.2734375 138.16015625 C52.59635547 138.15514183 50.91927203 138.15057882 49.2421875 138.14648438 C45.12756944 138.1354494 41.01301872 138.11818179 36.8984375 138.09765625 C33.80127974 132.25987841 31.56155544 126.5102197 29.60546875 120.20703125 C29.30211105 119.24954987 28.99875336 118.29206848 28.686203 117.30557251 C28.03123527 115.23640238 27.37917397 113.16631043 26.72973633 111.09539795 C24.97304633 105.49539605 23.19386827 99.90252714 21.41796875 94.30859375 C20.86545944 92.56523239 20.86545944 92.56523239 20.30178833 90.78665161 C16.24164624 77.99102233 12.07655342 65.23015807 7.8984375 52.47265625 C7.21069228 50.3694665 6.52294811 48.2662764 5.83520508 46.16308594 C5.16896278 44.12819619 4.50254312 42.09336451 3.8359375 40.05859375 C3.51554001 39.07995361 3.19514252 38.10131348 2.86503601 37.09301758 C1.14011377 31.83691757 -0.60666481 26.58898035 -2.37890625 21.34863281 C-2.9366272 19.69451889 -2.9366272 19.69451889 -3.50561523 18.00698853 C-4.22122623 15.8879534 -4.94062323 13.77019201 -5.66430664 11.65390015 C-5.98391357 10.70673126 -6.30352051 9.75956238 -6.6328125 8.78369141 C-6.91705078 7.94907379 -7.20128906 7.11445618 -7.49414062 6.25454712 C-8.1015625 4.09765625 -8.1015625 4.09765625 -8.1015625 1.09765625 C-5.33538687 -0.28543156 -3.0913825 -0.01444571 0 0 Z " fill="#FDFDFE" transform="translate(703.1015625,592.90234375)"/>
<path d="M0 0 C1.27617187 -0.02578125 2.55234375 -0.0515625 3.8671875 -0.078125 C7.125 0.25 7.125 0.25 8.73493958 1.51683044 C10.27604969 3.43833334 10.90679327 4.95854121 11.6237793 7.30883789 C11.8780217 8.12562515 12.1322641 8.94241241 12.39421082 9.78395081 C12.79268974 11.11486 12.79268974 11.11486 13.19921875 12.47265625 C13.48674515 13.40556992 13.77427155 14.33848358 14.07051086 15.29966736 C14.99338659 18.301307 15.90316239 21.30673465 16.8125 24.3125 C17.40473029 26.24701094 17.99782154 28.18125853 18.59179688 30.11523438 C19.79975119 34.05334579 21.00231762 37.9930426 22.20068359 41.93408203 C24.31290424 48.87600743 26.44655647 55.81129226 28.58203125 62.74609375 C28.9352092 63.89320328 29.28838715 65.04031281 29.65226746 66.22218323 C30.47630535 68.89818576 31.30053598 71.57412872 32.125 74.25 C32.32687424 73.58395752 32.52874847 72.91791504 32.73674011 72.23168945 C34.66231578 65.87909093 36.58856105 59.52669584 38.51551342 53.17451477 C39.50557004 49.91072143 40.49538945 46.64685658 41.48461914 43.3828125 C43.7051804 36.05678624 45.93109197 28.73242854 48.16400146 21.41015625 C49.02231412 18.58767317 49.87304712 15.7630505 50.72119141 12.9375 C51.16409461 11.47907753 51.60726178 10.02073518 52.05078125 8.5625 C52.41212158 7.36238281 52.77346191 6.16226563 53.14575195 4.92578125 C54.125 2.25 54.125 2.25 56.125 0.25 C58.43164062 0.09887695 58.43164062 0.09887695 61.28125 0.23828125 C62.30347656 0.28533203 63.32570313 0.33238281 64.37890625 0.38085938 C65.45011719 0.44080078 66.52132812 0.50074219 67.625 0.5625 C68.69621094 0.61083984 69.76742187 0.65917969 70.87109375 0.70898438 C78.83649554 1.10574777 78.83649554 1.10574777 81.125 2.25 C80.51056636 8.32491476 78.77891493 13.70004638 76.7578125 19.4453125 C76.41119568 20.44631989 76.06457886 21.44732727 75.7074585 22.47866821 C74.56189368 25.77990074 73.40652665 29.07759308 72.25 32.375 C71.4440181 34.68386514 70.63819377 36.99278529 69.83251953 39.30175781 C67.70762224 45.38202583 65.57159573 51.45832866 63.43237305 57.53356934 C62.13206141 61.22992674 60.83604585 64.92776586 59.54101562 68.62597656 C57.44416912 74.60989915 55.33468993 80.58923165 53.21575928 86.56536865 C52.41482434 88.82808322 51.61709499 91.09193542 50.82281494 93.35699463 C36.91405535 132.96696365 36.91405535 132.96696365 19.67578125 142.0859375 C14.218388 144.57644774 9.09444244 144.43325955 3.1875 144.4375 C2.29353516 144.44974609 1.39957031 144.46199219 0.47851562 144.47460938 C-4.07523054 144.48475135 -7.74726536 144.43020222 -11.875 142.25 C-11.09595672 127.46867882 -11.09595672 127.46867882 -8.875 121.25 C-8.3284375 121.40984375 -7.781875 121.5696875 -7.21875 121.734375 C-4.55847534 122.31963543 -2.09823064 122.45511158 0.625 122.5 C1.5634375 122.52578125 2.501875 122.5515625 3.46875 122.578125 C6.54839202 122.19769863 7.78027569 121.20393692 10.125 119.25 C10.785 119.25 11.445 119.25 12.125 119.25 C12.40988281 118.67121094 12.69476563 118.09242188 12.98828125 117.49609375 C13.70635331 116.07722284 14.45071124 114.67108568 15.23046875 113.28515625 C15.58753906 112.63417969 15.94460938 111.98320313 16.3125 111.3125 C16.67730469 110.66410156 17.04210937 110.01570312 17.41796875 109.34765625 C19.05735955 104.48382831 16.1175182 99.18542139 14.4140625 94.5859375 C13.99381554 93.43821365 13.99381554 93.43821365 13.56507874 92.26730347 C12.63047912 89.71847046 11.69036853 87.17170974 10.75 84.625 C10.09071818 82.83177319 9.43162392 81.03847741 8.77270508 79.24511719 C1.55562406 59.62661525 -5.74297253 40.03797851 -13.05078125 20.453125 C-13.40849106 19.4934079 -13.76620087 18.5336908 -14.13475037 17.54489136 C-14.46709183 16.65512604 -14.79943329 15.76536072 -15.1418457 14.84863281 C-15.42969437 14.07739075 -15.71754303 13.30614868 -16.01411438 12.51153564 C-16.63611805 10.87753986 -17.29770055 9.25842429 -17.98332214 7.65008545 C-18.875 5.25 -18.875 5.25 -18.875 2.25 C-13.40304256 -0.48597872 -6.01328102 0.10496277 0 0 Z " fill="#FCFDFE" transform="translate(378.875,626.75)"/>
<path d="M0 0 C10.80458085 -0.02312312 21.60915586 -0.04091493 32.41375637 -0.05181217 C37.4302247 -0.05704107 42.44667615 -0.06413883 47.46313477 -0.07543945 C52.30009694 -0.0862681 57.13704284 -0.09227679 61.97401619 -0.09487724 C63.82368285 -0.09673153 65.67334857 -0.10035222 67.52300835 -0.10573006 C70.10447014 -0.1129402 72.68586382 -0.11399095 75.26733398 -0.11352539 C76.03985001 -0.11712067 76.81236603 -0.12071594 77.60829163 -0.12442017 C82.88594784 -0.11405216 82.88594784 -0.11405216 84 1 C84.0991657 2.62257544 84.13079777 4.24939831 84.1328125 5.875 C84.13410156 6.85984375 84.13539063 7.8446875 84.13671875 8.859375 C84.13285156 9.89578125 84.12898438 10.9321875 84.125 12 C84.12886719 13.03640625 84.13273437 14.0728125 84.13671875 15.140625 C84.13542969 16.12546875 84.13414062 17.1103125 84.1328125 18.125 C84.13168457 19.03507813 84.13055664 19.94515625 84.12939453 20.8828125 C84 23 84 23 83 24 C81.2507128 24.09365006 79.49763746 24.11744438 77.74584961 24.11352539 C76.62476303 24.11344986 75.50367645 24.11337433 74.34861755 24.11329651 C72.51896202 24.10555458 72.51896202 24.10555458 70.65234375 24.09765625 C69.41078018 24.0962413 68.16921661 24.09482635 66.89002991 24.09336853 C63.58394509 24.08870591 60.27792854 24.07971497 56.97186279 24.06866455 C53.60038861 24.05844827 50.22890718 24.05381574 46.85742188 24.04882812 C40.23824261 24.03862279 33.61918347 24.01905106 27 24 C27 35.55 27 47.1 27 59 C44.16 59 61.32 59 79 59 C80.7680198 62.5360396 80.18464913 66.60571255 80.1875 70.5 C80.19974609 71.38042969 80.21199219 72.26085937 80.22460938 73.16796875 C80.22654297 74.00972656 80.22847656 74.85148438 80.23046875 75.71875 C80.23457764 76.49154297 80.23868652 77.26433594 80.24291992 78.06054688 C80 80 80 80 78 82 C75.82333374 82.24050903 75.82333374 82.24050903 73.09130859 82.22705078 C72.07040131 82.22689972 71.04949402 82.22674866 69.99765015 82.22659302 C68.89240997 82.21627045 67.7871698 82.20594788 66.6484375 82.1953125 C65.5192691 82.1924826 64.39010071 82.18965271 63.22671509 82.18673706 C59.60937029 82.17551462 55.99227034 82.15040622 52.375 82.125 C49.9270869 82.11497287 47.47916993 82.10584656 45.03125 82.09765625 C39.02074936 82.07556857 33.01039217 82.04207074 27 82 C27.00222061 82.68682358 27.00444122 83.37364716 27.00672913 84.08128357 C27.02877895 91.20205162 27.04390533 98.32281004 27.05493164 105.44360352 C27.05997383 108.10441481 27.06680736 110.76522332 27.07543945 113.42602539 C27.08751009 117.24105516 27.09322929 121.05604844 27.09765625 124.87109375 C27.10281754 126.06899033 27.10797882 127.2668869 27.11329651 128.50108337 C27.11340981 130.15268211 27.11340981 130.15268211 27.11352539 131.83764648 C27.115746 132.81249496 27.11796661 133.78734344 27.12025452 134.79173279 C27 137 27 137 26 138 C24.15840977 138.09959621 22.31303033 138.13080411 20.46875 138.1328125 C19.34855469 138.13410156 18.22835937 138.13539063 17.07421875 138.13671875 C15.89472656 138.13285156 14.71523437 138.12898437 13.5 138.125 C11.73076172 138.13080078 11.73076172 138.13080078 9.92578125 138.13671875 C8.24548828 138.13478516 8.24548828 138.13478516 6.53125 138.1328125 C5.49548828 138.13168457 4.45972656 138.13055664 3.39257812 138.12939453 C1 138 1 138 0 137 C-0.09634459 135.22839682 -0.12187481 133.45291592 -0.12025452 131.67869568 C-0.12162918 130.52458191 -0.12300385 129.37046814 -0.12442017 128.18138123 C-0.12082489 126.90392532 -0.11722961 125.62646942 -0.11352539 124.31030273 C-0.11324352 122.96041872 -0.11340125 121.61053456 -0.1139679 120.26065063 C-0.11425587 116.58519392 -0.10835916 112.90976957 -0.10139394 109.2343204 C-0.09516038 105.39726851 -0.0945566 101.56021596 -0.09336853 97.72315979 C-0.09025522 90.45228782 -0.08204183 83.18143081 -0.07201904 75.91056544 C-0.0608579 67.63500648 -0.05534745 59.35944682 -0.05032361 51.08388221 C-0.03985922 34.05591281 -0.02225978 17.02795798 0 0 Z " fill="#FDFEFE" transform="translate(218,593)"/>
<path d="M0 0 C13.39497605 -0.04626156 26.78993321 -0.08183768 40.18497276 -0.10362434 C46.40426828 -0.11407879 52.62350929 -0.12826821 58.84277344 -0.15087891 C64.84035404 -0.17254815 70.8378821 -0.1845561 76.83549881 -0.18975449 C79.12812757 -0.19346091 81.42075333 -0.20069821 83.71335983 -0.21146011 C86.91492771 -0.22589636 90.11627612 -0.22798125 93.31787109 -0.22705078 C94.27380661 -0.23424133 95.22974213 -0.24143188 96.21464539 -0.24884033 C97.51875618 -0.24471634 97.51875618 -0.24471634 98.84921265 -0.24050903 C99.60692648 -0.24235262 100.36464031 -0.24419621 101.14531517 -0.24609566 C103 0 103 0 105 2 C105.24291992 4.13891602 105.24291992 4.13891602 105.23046875 6.75390625 C105.22853516 7.69041016 105.22660156 8.62691406 105.22460938 9.59179688 C105.21236328 10.57212891 105.20011719 11.55246094 105.1875 12.5625 C105.1865332 14.03879883 105.1865332 14.03879883 105.18554688 15.54492188 C105.14017532 22.85982468 105.14017532 22.85982468 104 24 C91.46 24 78.92 24 66 24 C66 61.62 66 99.24 66 138 C57.42 138 48.84 138 40 138 C39 137 39 137 38.87695217 135.11218929 C38.87787396 134.27981023 38.87879576 133.44743116 38.87974548 132.58982849 C38.87837082 131.63765442 38.87699615 130.68548035 38.87557983 129.70445251 C38.88097275 128.12489525 38.88097275 128.12489525 38.88647461 126.51342773 C38.88632858 125.41112823 38.88618256 124.30882874 38.8860321 123.17312622 C38.88673179 119.50992908 38.89452676 115.84678206 38.90234375 112.18359375 C38.90420773 109.65153532 38.90563173 107.11947652 38.90663147 104.5874176 C38.91006654 98.59151751 38.91795731 92.59563911 38.92798096 86.59974772 C38.93914323 79.77518942 38.94465283 72.95063028 38.94967639 66.12606514 C38.96013996 52.08403336 38.9777387 38.04201767 39 24 C37.854104 24.00523682 36.70820801 24.01047363 35.52758789 24.01586914 C31.29159318 24.03391717 27.05560188 24.04543128 22.81958008 24.05493164 C20.98331125 24.05997231 19.14704646 24.06680477 17.31079102 24.07543945 C14.67723599 24.08751672 12.04373384 24.09323081 9.41015625 24.09765625 C8.17109276 24.10539818 8.17109276 24.10539818 6.90699768 24.11329651 C4.93763632 24.11349205 2.96838386 24.06204152 1 24 C0 23 0 23 -0.11352539 20.77514648 C-0.10828857 19.81680908 -0.10305176 18.85847168 -0.09765625 17.87109375 C-0.09443359 16.83662109 -0.09121094 15.80214844 -0.08789062 14.73632812 C-0.07951172 13.64771484 -0.07113281 12.55910156 -0.0625 11.4375 C-0.05798828 10.34501953 -0.05347656 9.25253906 -0.04882812 8.12695312 C-0.03699826 5.41791505 -0.02051543 2.70898401 0 0 Z " fill="#FEFEFE" transform="translate(501,593)"/>
<path d="M0 0 C1.12019531 -0.00128906 2.24039063 -0.00257813 3.39453125 -0.00390625 C4.57402344 -0.00003906 5.75351562 0.00382813 6.96875 0.0078125 C8.73798828 0.00201172 8.73798828 0.00201172 10.54296875 -0.00390625 C12.22326172 -0.00197266 12.22326172 -0.00197266 13.9375 0 C14.97326172 0.00112793 16.00902344 0.00225586 17.07617188 0.00341797 C19.46875 0.1328125 19.46875 0.1328125 20.46875 1.1328125 C20.56440123 2.6003021 20.59063309 4.07238134 20.58900452 5.54298401 C20.59037918 6.49515808 20.59175385 7.44733215 20.59317017 8.42835999 C20.58957489 9.48139816 20.58597961 10.53443634 20.58227539 11.61938477 C20.58242142 12.72168427 20.58256744 13.82398376 20.5827179 14.95968628 C20.58201821 18.62288342 20.57422324 22.28603044 20.56640625 25.94921875 C20.56454227 28.48127718 20.56311827 31.01333598 20.56211853 33.5453949 C20.55868346 39.54129499 20.55079269 45.53717339 20.54076904 51.53306478 C20.52960677 58.35762308 20.52409717 65.18218222 20.51907361 72.00674736 C20.50861004 86.04877914 20.4910113 100.09079483 20.46875 114.1328125 C21.18062973 114.13059189 21.89250946 114.12837128 22.6259613 114.12608337 C29.32149235 114.10607997 36.01701511 114.09083812 42.71256924 114.08100033 C46.15515348 114.07577268 49.59771312 114.06867719 53.0402832 114.05737305 C56.99430043 114.04447015 60.94830756 114.03958332 64.90234375 114.03515625 C66.76480995 114.02741432 66.76480995 114.02741432 68.66490173 114.01951599 C69.80600906 114.01944046 70.94711639 114.01936493 72.12280273 114.01928711 C73.133181 114.0170665 74.14355927 114.01484589 75.18455505 114.01255798 C77.46875 114.1328125 77.46875 114.1328125 78.46875 115.1328125 C78.71973924 118.60490057 78.65397096 122.0902187 78.65625 125.5703125 C78.66849609 126.55064453 78.68074219 127.53097656 78.69335938 128.54101562 C78.69529297 129.47751953 78.69722656 130.41402344 78.69921875 131.37890625 C78.70332764 132.24185303 78.70743652 133.1047998 78.71166992 133.99389648 C78.46875 136.1328125 78.46875 136.1328125 76.46875 138.1328125 C73.85400377 138.32597067 71.34563087 138.39512202 68.73022461 138.37573242 C67.93174606 138.37763077 67.13326752 138.37952911 66.31059265 138.38148499 C63.66399402 138.38519811 61.0176681 138.37448186 58.37109375 138.36328125 C56.5378879 138.36208974 54.70468144 138.36163623 52.87147522 138.3618927 C49.02715236 138.36032696 45.18292251 138.35202975 41.33862305 138.33862305 C36.39961463 138.32162112 31.46070841 138.31780899 26.52167416 138.31856823 C22.73599768 138.31829692 18.95034375 138.31282226 15.16467476 138.30556679 C13.34292331 138.30237462 11.5211693 138.30041144 9.69941521 138.29967308 C7.15885903 138.29751597 4.61841346 138.28878583 2.07788086 138.27807617 C0.93784607 138.27875595 0.93784607 138.27875595 -0.22521973 138.27944946 C-5.41677523 138.24728727 -5.41677523 138.24728727 -6.53125 137.1328125 C-6.62974988 135.37619226 -6.65757077 133.61558073 -6.65823364 131.85620117 C-6.66105347 130.71194672 -6.66387329 129.56769226 -6.66677856 128.38876343 C-6.66475433 127.12222931 -6.6627301 125.85569519 -6.66064453 124.55078125 C-6.66199856 123.21237134 -6.66377851 121.8739618 -6.66595459 120.53555298 C-6.67052869 116.89102395 -6.66873946 113.24652311 -6.6655755 109.60199356 C-6.66305178 105.79610363 -6.66538947 101.99021619 -6.66696167 98.18432617 C-6.66878333 91.791825 -6.66637715 85.39933536 -6.66162109 79.00683594 C-6.65617848 71.60586847 -6.65794114 64.20492855 -6.6634475 56.80396175 C-6.66797873 50.46087628 -6.66862913 44.11779913 -6.66600883 37.77471256 C-6.66444611 33.98134471 -6.66425215 30.18798983 -6.66754532 26.3946228 C-6.67042418 22.82914306 -6.66844807 19.26369899 -6.66265106 15.69822311 C-6.66068796 13.75776977 -6.66367725 11.81731343 -6.66677856 9.87686157 C-6.66395874 8.73260712 -6.66113892 7.58835266 -6.65823364 6.40942383 C-6.65785662 5.40873367 -6.65747959 4.40804352 -6.65709114 3.37702942 C-6.41166558 -0.99982368 -3.78712963 0.00412413 0 0 Z " fill="#FEFEFE" transform="translate(627.53125,592.8671875)"/>
<path d="M0 0 C8.58 0 17.16 0 26 0 C26 46.53 26 93.06 26 141 C23.45724451 142.27137774 21.65191799 142.129425 18.80859375 142.1328125 C17.78185547 142.13410156 16.75511719 142.13539063 15.69726562 142.13671875 C14.62154297 142.13285156 13.54582031 142.12898437 12.4375 142.125 C11.35791016 142.12886719 10.27832031 142.13273438 9.16601562 142.13671875 C7.6278418 142.13478516 7.6278418 142.13478516 6.05859375 142.1328125 C5.11298584 142.13168457 4.16737793 142.13055664 3.19311523 142.12939453 C1 142 1 142 0 141 C-0.10734198 139.66827102 -0.14678439 138.33097898 -0.15821838 136.99497986 C-0.17290161 135.69919258 -0.17290161 135.69919258 -0.18788147 134.37722778 C-0.19651466 132.94321121 -0.19651466 132.94321121 -0.20532227 131.48022461 C-0.21522186 130.47809433 -0.22512146 129.47596405 -0.23532104 128.44346619 C-0.2671383 125.09644993 -0.29182049 121.74942036 -0.31640625 118.40234375 C-0.3370063 116.05904296 -0.35800352 113.71574563 -0.37937927 111.37245178 C-0.42347897 106.42825294 -0.46434548 101.48404174 -0.50268555 96.53979492 C-0.55109987 90.29904799 -0.60481655 84.05836305 -0.66063881 77.81767845 C-0.79407177 62.87857748 -0.90798597 47.93941382 -1 33 C-1.0058889 32.06223976 -1.0117778 31.12447952 -1.01784515 30.15830231 C-1.04742588 25.3168877 -1.07148405 20.47552589 -1.08384514 15.63403511 C-1.08966365 13.62848467 -1.09988391 11.6229485 -1.11024475 9.61741638 C-1.11116623 8.46693314 -1.11208771 7.31644989 -1.11303711 6.13110352 C-1.11548935 5.15174332 -1.11794159 4.17238312 -1.12046814 3.16334534 C-1 1 -1 1 0 0 Z " fill="#FEFEFE" transform="translate(319,589)"/>
<path d="M0 0 C2.65359262 1.93640542 3.7609947 3.37858623 4.9375 6.4375 C5.01929321 9.79102143 3.98804097 11.34927871 2 14 C-0.88861709 15.44430855 -2.79647701 15.37688506 -6 15 C-8.9375 12.9375 -8.9375 12.9375 -11 10 C-11.06641554 6.14789873 -10.87229157 4.00151995 -8.3125 1.0625 C-5.26397123 -0.33817538 -3.32073048 -0.4842732 0 0 Z " fill="#2C93FE" transform="translate(640,353)"/>
<path d="M0 0 C2.93507943 2.06248825 3.84435488 3.54279245 5 6.9375 C5 10 5 10 3.5625 12.875 C0.49043763 15.42256392 -1.18704205 15.74699343 -5.08984375 15.484375 C-7 15 -7 15 -9.5625 12.875 C-11 10 -11 10 -11 6.9375 C-9.02889554 1.14738064 -6.15166614 -1.02527769 0 0 Z " fill="#2D93FE" transform="translate(671,339)"/>
<path d="M0 0 C1.9375 1.125 1.9375 1.125 3 3 C3.49573337 6.89504791 3.58016848 9.09493717 1.4375 12.4375 C-1.96719488 14.61999672 -4.03430012 14.63734462 -8 14 C-10.5 11.9375 -10.5 11.9375 -12 9 C-12 5.19715329 -11.7968187 2.98069994 -9.375 0 C-5.91616747 -1.45635054 -3.58701629 -0.91305869 0 0 Z " fill="#2A91FE" transform="translate(610,368)"/>
<path d="M0 0 C0.495 1.485 0.495 1.485 1 3 C-10.16940163 7.31099712 -22.14680529 10.94256533 -33.9375 6.5 C-34.948125 6.005 -35.95875 5.51 -37 5 C-36.34 4.67 -35.68 4.34 -35 4 C-34.01 4.33 -33.02 4.66 -32 5 C-21.75535749 5.89865285 -11.119421 6.280781 -2 1 C-1.34 0.67 -0.68 0.34 0 0 Z " fill="#207CFE" transform="translate(404,765)"/>
<path d="M0 0 C0.33 0 0.66 0 1 0 C0.67 11.22 0.34 22.44 0 34 C-1.485 34.495 -1.485 34.495 -3 35 C-3 29.39 -3 23.78 -3 18 C-2.67 18 -2.34 18 -2 18 C-1.34 12.06 -0.68 6.12 0 0 Z " fill="#47A7FE" transform="translate(130,297)"/>
<path d="M0 0 C0.33 0 0.66 0 1 0 C0.98839844 0.91523438 0.97679687 1.83046875 0.96484375 2.7734375 C0.95582031 3.96195312 0.94679688 5.15046875 0.9375 6.375 C0.92589844 7.55835938 0.91429687 8.74171875 0.90234375 9.9609375 C0.78533407 12.91921521 0.78533407 12.91921521 2 15 C1.00390625 17.6015625 1.00390625 17.6015625 -0.4375 20.625 C-0.91058594 21.62789063 -1.38367188 22.63078125 -1.87109375 23.6640625 C-2.24363281 24.43492187 -2.61617187 25.20578125 -3 26 C-3.66 26 -4.32 26 -5 26 C-4.53921985 22.40591484 -3.74759245 19.19621415 -2.5 15.8125 C-0.68413109 10.6217723 -0.29609346 5.46241374 0 0 Z " fill="#1F8AFE" transform="translate(820,319)"/>
<path d="M0 0 C1.31534494 3.65857532 0.65468309 6.08026481 -0.4375 9.75 C-0.72496094 10.73484375 -1.01242187 11.7196875 -1.30859375 12.734375 C-1.65083984 13.85585938 -1.65083984 13.85585938 -2 15 C-4 14 -4 14 -5.1875 10.6875 C-5.90649268 7.42437937 -6.20286847 6.00717118 -5 3 C-3.33333333 3 -1.66666667 3 0 3 C0 2.01 0 1.02 0 0 Z " fill="#1C78FE" transform="translate(761,692)"/>
<path d="M0 0 C-2.51840815 0.677219 -5.03908724 1.34191174 -7.5625 2 C-8.26697266 2.19078125 -8.97144531 2.3815625 -9.69726562 2.578125 C-14.27060209 3.75834086 -18.27776365 4.19856973 -23 4 C-23 3.67 -23 3.34 -23 3 C-7.11826822 -2.37275607 -7.11826822 -2.37275607 0 0 Z " fill="#1F74FE" transform="translate(772,890)"/>
<path d="M0 0 C4.95 0.33 9.9 0.66 15 1 C11.13209997 2.93395001 9.8499541 3.23289353 5.75 3.125 C4.85796875 3.10695312 3.9659375 3.08890625 3.046875 3.0703125 C2.03367187 3.03550781 2.03367187 3.03550781 1 3 C0.67 2.01 0.34 1.02 0 0 Z " fill="#3F9FFE" transform="translate(725,125)"/>
<path d="M0 0 C1.19332515 4.77330058 0.39412339 6.28262588 -1.4375 10.75 C-1.91058594 11.92046875 -2.38367188 13.0909375 -2.87109375 14.296875 C-3.24363281 15.18890625 -3.61617187 16.0809375 -4 17 C-4.87840996 13.90279155 -4.99435406 12.09354597 -4 9 C-3.34 9 -2.68 9 -2 9 C-1.34 6.03 -0.68 3.06 0 0 Z " fill="#2076FE" transform="translate(885,778)"/>
<path d="M0 0 C1.12377697 3.30435084 0.89554742 5.0506862 -0.4375 8.25 C-0.72496094 8.95640625 -1.01242187 9.6628125 -1.30859375 10.390625 C-1.53675781 10.92171875 -1.76492188 11.4528125 -2 12 C-3.42944945 9.64561267 -4.08661261 8.51967567 -3.625 5.75 C-3.41875 5.1725 -3.2125 4.595 -3 4 C-2.67 4.33 -2.34 4.66 -2 5 C-1.34 3.35 -0.68 1.7 0 0 Z " fill="#1A76FE" transform="translate(413,690)"/>
<path d="M0 0 C0.33 0 0.66 0 1 0 C1.33292585 4.24480464 1.43885872 6.35542625 -1 9.9375 C-1.66 10.618125 -2.32 11.29875 -3 12 C-2.49202991 7.6822542 -1.80317221 3.96697886 0 0 Z " fill="#207DFE" transform="translate(804,645)"/>
<path d="M0 0 C0 3 0 3 -2.5 5.6875 C-3.325 6.450625 -4.15 7.21375 -5 8 C-5.33 6.68 -5.66 5.36 -6 4 C-5.01 4 -4.02 4 -3 4 C-3 3.34 -3 2.68 -3 2 C-2.01 1.34 -1.02 0.68 0 0 Z " fill="#297BFE" transform="translate(856,834)"/>
<path d="M0 0 C0.99 0.66 1.98 1.32 3 2 C2.34 2.66 1.68 3.32 1 4 C0.3574765 6.06874034 0.3574765 6.06874034 0 8 C-0.99 7.67 -1.98 7.34 -3 7 C-1.125 1.125 -1.125 1.125 0 0 Z " fill="#399DFE" transform="translate(745,306)"/>
<path d="M0 0 C1.485 0.99 1.485 0.99 3 2 C3.1875 5.625 3.1875 5.625 3 9 C2.01 8.67 1.02 8.34 0 8 C0 5.36 0 2.72 0 0 Z " fill="#45A3FE" transform="translate(892,281)"/>
<path d="M0 0 C-0.9590625 0.433125 -0.9590625 0.433125 -1.9375 0.875 C-4.15206079 1.82823451 -4.15206079 1.82823451 -5 4 C-5.66 2.68 -6.32 1.36 -7 0 C-4.3333581 -1.33332095 -2.83319697 -0.67102033 0 0 Z " fill="#2C83FE" transform="translate(174,833)"/>
</svg>
